<svg width="16" height="25" viewBox="0 0 16 25" fill="none" xmlns="http://www.w3.org/2000/svg">
    <path d="M13.1676 4.25163C11.9907 4.25163 11.0367 5.20555 11.0367 6.38254C11.0367 7.13191 11.4255 7.78868 12.0105 8.1682V9.98029C12.0105 10.2561 11.7356 10.6435 11.4754 10.7343L9.05569 11.5794V4.81257C9.64077 4.43304 10.0295 3.77627 10.0295 3.02691C10.0295 1.84991 9.07563 0.895996 7.89853 0.895996C6.72153 0.895996 5.76762 1.84991 5.76762 3.02691C5.76762 3.77627 6.15639 4.43304 6.74143 4.81257V14.8212L4.31613 13.9742C4.0565 13.8835 3.78109 13.4961 3.78109 13.2202V11.4082C4.36613 11.0286 4.75495 10.3719 4.75495 9.6225C4.75495 8.4455 3.80104 7.49159 2.62399 7.49159C1.44694 7.49159 0.493027 8.44598 0.493027 9.6225C0.493027 10.3719 0.881842 11.0286 1.46688 11.4082V13.2202C1.46688 14.4805 2.36387 15.7437 3.55341 16.1593L6.74148 17.2729V18.1552C5.39415 18.6323 4.42726 19.9139 4.42726 21.4247C4.42726 23.3423 5.98151 24.896 7.89863 24.896C9.8157 24.896 11.37 23.3423 11.37 21.4247C11.37 19.9135 10.4031 18.6324 9.05579 18.1552V14.0312L12.2383 12.9194C13.4279 12.5042 14.3248 11.2406 14.3248 9.98034V8.16825C14.9099 7.78873 15.2986 7.13196 15.2986 6.38259C15.2985 5.20555 14.3447 4.25163 13.1676 4.25163Z" fill="#7A7A85"/>
</svg>
