<svg width="20" height="16" viewBox="0 0 20 16" fill="none" xmlns="http://www.w3.org/2000/svg">
    <path d="M20.0005 4.32001V14C20.0005 14.5304 19.7898 15.0391 19.4147 15.4142C19.0396 15.7893 18.5309 16 18.0005 16H2.00049C1.47006 16 0.961347 15.7893 0.586275 15.4142C0.211202 15.0391 0.000488281 14.5304 0.000488281 14V4.69001L2.00049 5.78001L9.52049 9.88001C9.66791 9.95958 9.83296 10.0008 10.0005 10C10.1766 9.99818 10.3491 9.94988 10.5005 9.86001L18.0005 5.49001L20.0005 4.32001Z" fill="#7A7A85"/>
    <path d="M20.0002 2L18.0002 3.18L10.0002 7.85L2.00024 3.5L0.000244141 2.4V2C0.000244141 1.46957 0.210958 0.960859 0.58603 0.585786C0.961103 0.210714 1.46981 0 2.00024 0H18.0002C18.5307 0 19.0394 0.210714 19.4145 0.585786C19.7895 0.960859 20.0002 1.46957 20.0002 2Z" fill="#7A7A85"/>
</svg>
