<svg width="15" height="16" viewBox="0 0 15 16" fill="none" xmlns="http://www.w3.org/2000/svg">
    <path d="M4.26673 0.711111V1.42222H0.711172C0.31844 1.42222 6.10352e-05 1.7406 6.10352e-05 2.13333V2.84444C6.10352e-05 3.23718 0.31844 3.55556 0.711172 3.55556H13.5112C13.9039 3.55556 14.2223 3.23718 14.2223 2.84444V2.13333C14.2223 1.7406 13.9039 1.42222 13.5112 1.42222H9.95562V0.711111C9.95562 0.318375 9.63725 0 9.24451 0H4.97784C4.58511 0 4.26673 0.318375 4.26673 0.711111Z" fill="currentColor"/>
    <path d="M1.36768 4.97778H12.8547L12.1846 14.0243C12.102 15.1383 11.1742 16 10.0571 16H4.16529C3.04822 16 2.1203 15.1383 2.03778 14.0243L1.36768 4.97778Z" fill="currentColor"/>
</svg>
