<svg width="15" height="15" viewBox="0 0 15 15" fill="none" xmlns="http://www.w3.org/2000/svg">
    <path fill-rule="evenodd" clip-rule="evenodd" d="M1.019 11.6168L0.0348311 14.2412C-0.00296048 14.3422 -0.0108822 14.4519 0.0120124 14.5573C0.0349069 14.6627 0.0876499 14.7593 0.163942 14.8355C0.240235 14.9117 0.336852 14.9643 0.442255 14.9871C0.547658 15.0099 0.657393 15.0019 0.758352 14.964L3.38205 13.9798C3.68236 13.8673 3.9551 13.6919 4.18197 13.4653L11.7819 5.86528C11.7819 5.86528 11.5168 5.07061 10.7229 4.27593C9.92895 3.48201 9.13352 3.21687 9.13352 3.21687L1.53355 10.8168C1.30692 11.0437 1.13147 11.3165 1.019 11.6168ZM10.1933 2.15705L11.2292 1.1212C11.4149 0.935453 11.6629 0.817113 11.922 0.860554C12.2868 0.920473 12.8448 1.10173 13.3705 1.62827C13.8971 2.1548 14.0783 2.71205 14.1383 3.07681C14.1817 3.33596 14.0634 3.58387 13.8776 3.76962L12.841 4.80547C12.841 4.80547 12.5766 4.01154 11.7819 3.21762C10.988 2.42219 10.1933 2.15705 10.1933 2.15705Z" fill="#7A7A85"/>
</svg>
