<svg width="14" height="16" viewBox="0 0 14 16" fill="none" xmlns="http://www.w3.org/2000/svg">
    <path d="M7.09 0.955566C7.52228 0.955566 7.8727 1.306 7.8727 1.73827C7.8727 2.13966 7.57055 2.47049 7.18128 2.51571L7.09 2.52097H3.17648C2.77508 2.52097 2.44425 2.82313 2.39904 3.2124L2.39378 3.30368V12.6961C2.39378 13.0975 2.69593 13.4283 3.0852 13.4736L3.17648 13.4788H6.69864C7.13093 13.4788 7.48135 13.8292 7.48135 14.2615C7.48135 14.6629 7.1792 14.9937 6.78993 15.039L6.69864 15.0442H3.17648C1.92597 15.0442 0.903774 14.0667 0.832355 12.8341L0.828369 12.6961V3.30368C0.828369 2.05317 1.80591 1.03097 3.03851 0.959552L3.17648 0.955566H7.09ZM11.5569 5.23263L13.7708 7.44645C14.0764 7.75209 14.0764 8.2477 13.7708 8.55335L11.5569 10.7671C11.2512 11.0729 10.7557 11.0729 10.45 10.7671C10.1443 10.4615 10.1443 9.96589 10.45 9.66024L11.3277 8.7826H7.09C6.65771 8.7826 6.30729 8.43218 6.30729 7.9999C6.30729 7.56761 6.65771 7.21719 7.09 7.21719H11.3277L10.45 6.33953C10.1443 6.03387 10.1443 5.53829 10.45 5.23263C10.7557 4.92696 11.2512 4.92696 11.5569 5.23263Z" fill="currentColor"/>
</svg>
