<svg width="22" height="20" viewBox="0 0 22 20" fill="none" xmlns="http://www.w3.org/2000/svg">
    <path d="M21.5628 10.3898C21.3274 11.0171 20.7443 11.4224 20.0765 11.4224H19.5332V19.2449C19.5332 19.6374 19.2146 19.956 18.8221 19.956H14.5553V14.9781C14.5553 13.0175 12.9602 11.4224 10.9996 11.4224C9.03904 11.4224 7.44397 13.0175 7.44397 14.9781V19.956H3.17718C2.78464 19.956 2.46605 19.6374 2.46605 19.2449V11.4224H1.92204C1.25428 11.4224 0.671156 11.0178 0.435772 10.3906C0.200387 9.76334 0.373192 9.07354 0.876673 8.63406L9.18198 0.768951C10.2017 -0.196055 11.7982 -0.196055 12.8173 0.768951L21.1425 8.65255C21.6246 9.07283 21.7982 9.76263 21.5628 10.3898Z" fill="#7A7A85"/>
</svg>
