<svg width="24" height="24" viewBox="0 0 24 24" fill="none" xmlns="http://www.w3.org/2000/svg">
    <path d="M18 11.7399C17.9625 11.6042 17.8969 11.4779 17.8072 11.3694C17.7176 11.2608 17.6061 11.1724 17.48 11.1099L14.09 9.42988L15 3.13988C15.0299 2.92189 14.9871 2.70012 14.8782 2.50893C14.7693 2.31774 14.6003 2.16781 14.3976 2.08237C14.1948 1.99693 13.9695 1.98076 13.7566 2.03635C13.5437 2.09195 13.3551 2.21621 13.22 2.38988L6.21998 11.3899C6.12497 11.5112 6.05929 11.6529 6.02806 11.8038C5.99684 11.9547 6.00092 12.1108 6.03998 12.2599C6.08413 12.409 6.16085 12.5465 6.26462 12.6624C6.36838 12.7782 6.49659 12.8696 6.63998 12.9299L10.91 14.6399L9.99998 20.8599C9.96905 21.0831 10.0144 21.3103 10.1288 21.5045C10.2431 21.6987 10.4198 21.8486 10.63 21.9299C10.7472 21.9785 10.8731 22.0023 11 21.9999C11.1647 21.999 11.3266 21.9575 11.4714 21.879C11.6162 21.8005 11.7394 21.6874 11.83 21.5499L17.83 12.5499C17.9145 12.4348 17.9734 12.303 18.0027 12.1633C18.032 12.0236 18.0311 11.8792 18 11.7399Z" fill="currentColor"/>
</svg>
