<svg width="20" height="20" viewBox="0 0 20 20" fill="none" xmlns="http://www.w3.org/2000/svg">
    <path d="M19.333 16.3879C19.333 17.3622 18.5431 18.1521 17.5688 18.1521H9.06069C8.08643 18.1521 7.29653 17.3622 7.29653 16.3879C7.29653 15.4136 8.08643 14.6237 9.06069 14.6237H17.5688C18.5431 14.6237 19.333 15.4136 19.333 16.3879ZM4.79273 13.3879H2.54077C1.50564 13.3879 0.66634 14.2264 0.66634 15.2624V17.5139C0.66634 18.5495 1.50564 19.3883 2.54077 19.3883H4.79273C5.82786 19.3883 6.66716 18.5495 6.66716 17.5139V15.2624C6.66716 14.2264 5.8283 13.3879 4.79273 13.3879ZM17.5688 8.23568H9.06069C8.08643 8.23568 7.29653 9.02559 7.29653 9.99985C7.29653 10.9741 8.08643 11.764 9.06069 11.764H17.5688C18.5431 11.764 19.333 10.9741 19.333 9.99985C19.333 9.02559 18.5431 8.23568 17.5688 8.23568ZM6.66716 8.87387V11.1249C6.66716 12.1614 5.82786 12.9994 4.79273 12.9994H2.54077C1.50564 12.9994 0.66634 12.1614 0.66634 11.1249V8.87387C0.66634 7.8383 1.50564 6.99944 2.54077 6.99944H4.79273C5.8283 6.99944 6.66716 7.83875 6.66716 8.87387ZM5.78419 8.72833C5.52574 8.46988 5.10675 8.46988 4.84874 8.72833L4.7032 8.87387L3.26849 10.309L2.54077 9.5813L2.48476 9.52529C2.22631 9.26684 1.80776 9.26684 1.54931 9.52529C1.29086 9.78374 1.29086 10.2023 1.54931 10.4607L2.80098 11.7124C2.92492 11.8364 3.09339 11.906 3.26893 11.906C3.44446 11.906 3.6125 11.8364 3.73687 11.7124L4.32346 11.1258L4.79361 10.6557L5.78507 9.6651C6.04264 9.40533 6.04264 8.98678 5.78419 8.72833ZM9.06069 5.37597H17.5688C18.5431 5.37597 19.333 4.58606 19.333 3.6118C19.333 2.63754 18.5431 1.84763 17.5688 1.84763H9.06069C8.08643 1.84763 7.29653 2.63754 7.29653 3.6118C7.29653 4.58606 8.08643 5.37597 9.06069 5.37597ZM4.79273 0.611389H2.54077C1.50564 0.611389 0.66634 1.45025 0.66634 2.48582V4.73734C0.66634 5.77335 1.50564 6.61177 2.54077 6.61177H4.79273C5.82786 6.61177 6.66716 5.77335 6.66716 4.73734V2.48582C6.66716 1.45025 5.8283 0.611389 4.79273 0.611389Z" fill="#7A7A85"/>
</svg>
