<svg width="14" height="15" viewBox="0 0 14 15" fill="none" xmlns="http://www.w3.org/2000/svg">
    <path d="M5.55765 14.3204C5.39896 14.3204 5.24221 14.2856 5.0985 14.2182C4.95479 14.1509 4.82764 14.0528 4.72607 13.9309L1.06291 9.53303C0.961613 9.42531 0.883422 9.298 0.833146 9.15894C0.78287 9.01987 0.761571 8.872 0.77056 8.7244C0.779549 8.5768 0.818635 8.4326 0.885414 8.30067C0.952194 8.16874 1.04526 8.05186 1.15888 7.95722C1.2725 7.86258 1.40428 7.79219 1.54611 7.75037C1.68795 7.70854 1.83684 7.69618 1.98363 7.71402C2.13042 7.73187 2.27201 7.77956 2.39969 7.85415C2.52736 7.92874 2.63844 8.02866 2.72607 8.14777L5.39449 11.3509L11.1661 1.35409C11.3098 1.1052 11.5466 0.923624 11.8243 0.849301C12.1019 0.774977 12.3977 0.813995 12.6466 0.95777C12.8955 1.10155 13.0771 1.3383 13.1514 1.61595C13.2257 1.89361 13.1867 2.18941 13.0429 2.4383L6.49449 13.7772C6.40725 13.9283 6.28487 14.056 6.13772 14.1497C5.99057 14.2433 5.82299 14.3001 5.64923 14.3151C5.61844 14.3181 5.58752 14.3195 5.5566 14.3193L5.55765 14.3204Z" fill="#1CB557"/>
</svg>
