<svg width="20" height="20" viewBox="0 0 20 20" fill="none" xmlns="http://www.w3.org/2000/svg">
    <path d="M19.6001 16.7839V17.6799C19.6001 18.7359 18.7361 19.5999 17.6801 19.5999H2.3201C1.2641 19.5999 0.400101 18.7359 0.400101 17.6799V16.7839C0.400101 14.4479 3.1201 13.0399 5.6801 11.9199C5.7761 11.8879 5.8401 11.8559 5.9361 11.7919C6.1281 11.6959 6.3521 11.6959 6.5441 11.8239C7.5681 12.4959 8.7521 12.8799 10.0001 12.8799C11.2481 12.8799 12.4321 12.4959 13.4561 11.8559C13.6481 11.7279 13.8721 11.7279 14.0641 11.8239C14.1601 11.8559 14.2241 11.8879 14.3201 11.9519C16.8801 13.0399 19.6001 14.4479 19.6001 16.7839Z" fill="#62626A"/>
    <path d="M10.0001 10.96C12.6334 10.96 14.7681 8.59609 14.7681 5.68002C14.7681 2.76396 12.6334 0.400024 10.0001 0.400024C7.36684 0.400024 5.23213 2.76396 5.23213 5.68002C5.23213 8.59609 7.36684 10.96 10.0001 10.96Z" fill="#62626A"/>
</svg>
