<svg width="22" height="22" viewBox="0 0 22 22" fill="none" xmlns="http://www.w3.org/2000/svg">
    <path fill-rule="evenodd" clip-rule="evenodd" d="M11 21.6666C16.891 21.6666 21.6667 16.891 21.6667 11C21.6667 5.10894 16.891 0.333313 11 0.333313C5.10896 0.333313 0.333332 5.10894 0.333332 11C0.333332 16.891 5.10896 21.6666 11 21.6666ZM11.9167 11.5317C11.9167 11.1674 12.1109 10.8424 12.4001 10.7234C14.0033 10.0601 14.9111 8.3959 14.6093 6.67715C14.3497 5.19834 13.1359 3.98444 11.657 3.72485C10.5712 3.53505 9.47461 3.82597 8.64296 4.52424C7.81046 5.22337 7.33333 6.24746 7.33333 7.33331C7.33333 7.84 7.74331 8.24998 8.25 8.24998C8.75669 8.24998 9.16666 7.84 9.16666 7.33331C9.16666 6.79082 9.40569 6.2788 9.82197 5.92869C10.2436 5.57423 10.7816 5.43186 11.3402 5.53034C12.0608 5.65656 12.6767 6.27244 12.8029 6.99397C12.956 7.86051 12.5021 8.69662 11.7 9.02874C10.718 9.43431 10.0833 10.4172 10.0833 11.5317V11.9166C10.0833 12.4233 10.4933 12.8333 11 12.8333C11.5067 12.8333 11.9167 12.4233 11.9167 11.9166V11.5317ZM9.16666 15.8333C9.16666 16.8462 9.98742 17.6666 11 17.6666C12.0126 17.6666 12.8333 16.8462 12.8333 15.8333C12.8333 14.8209 12.0126 14 11 14C9.98742 14 9.16666 14.8209 9.16666 15.8333Z" fill="#7A7A85"/>
</svg>
