<svg width="22" height="20" viewBox="0 0 22 20" fill="none" xmlns="http://www.w3.org/2000/svg">
    <path d="M10.0975 0.891367C10.4597 0.132245 11.5403 0.132245 11.9025 0.891367L14.2224 5.75315C14.3682 6.05865 14.6587 6.26967 14.9943 6.31391L20.335 7.01792C21.1689 7.12784 21.5028 8.15552 20.8928 8.7346L16.9858 12.4434C16.7403 12.6764 16.6294 13.0178 16.691 13.3507L17.6719 18.6476C17.825 19.4746 16.9508 20.1098 16.2116 19.7085L11.477 17.1389C11.1795 16.9774 10.8205 16.9774 10.523 17.1389L5.78844 19.7085C5.04919 20.1098 4.175 19.4746 4.32814 18.6476L5.30897 13.3507C5.3706 13.0178 5.25966 12.6764 5.01416 12.4434L1.10723 8.7346C0.497195 8.15552 0.831107 7.12784 1.66501 7.01792L7.00573 6.31391C7.34134 6.26967 7.63178 6.05865 7.77756 5.75315L10.0975 0.891367Z" fill="#7A7A85"/>
</svg>
