<svg width="22" height="16" viewBox="0 0 22 16" fill="none" xmlns="http://www.w3.org/2000/svg">
    <path d="M9.66667 16C9.66667 16 8.33333 16 8.33333 14.6667C8.33333 13.3333 9.66667 9.33333 15 9.33333C20.3333 9.33333 21.6667 13.3333 21.6667 14.6667C21.6667 16 20.3333 16 20.3333 16H9.66667ZM15 8C16.0609 8 17.0783 7.57857 17.8284 6.82843C18.5786 6.07828 19 5.06087 19 4C19 2.93913 18.5786 1.92172 17.8284 1.17157C17.0783 0.421427 16.0609 0 15 0C13.9391 0 12.9217 0.421427 12.1716 1.17157C11.4214 1.92172 11 2.93913 11 4C11 5.06087 11.4214 6.07828 12.1716 6.82843C12.9217 7.57857 13.9391 8 15 8Z" fill="#7A7A85"/>
    <path fill-rule="evenodd" clip-rule="evenodd" d="M7.288 16C7.09034 15.5838 6.99176 15.1274 7 14.6667C7 12.86 7.90666 11 9.58133 9.70667C8.74545 9.44911 7.8746 9.32316 7 9.33333C1.66667 9.33333 0.333332 13.3333 0.333332 14.6667C0.333332 16 1.66667 16 1.66667 16H7.288Z" fill="#7A7A85"/>
    <path d="M6.33333 8.00001C7.21739 8.00001 8.06523 7.64882 8.69036 7.0237C9.31548 6.39858 9.66667 5.55073 9.66667 4.66668C9.66667 3.78262 9.31548 2.93478 8.69036 2.30965C8.06523 1.68453 7.21739 1.33334 6.33333 1.33334C5.44928 1.33334 4.60143 1.68453 3.97631 2.30965C3.35119 2.93478 3 3.78262 3 4.66668C3 5.55073 3.35119 6.39858 3.97631 7.0237C4.60143 7.64882 5.44928 8.00001 6.33333 8.00001Z" fill="#7A7A85"/>
</svg>
