<svg width="22" height="22" viewBox="0 0 22 22" fill="none" xmlns="http://www.w3.org/2000/svg">
    <path d="M10.9998 0.333313C8.89012 0.333313 6.82783 0.958902 5.07371 2.13097C3.31958 3.30304 1.95241 4.96894 1.14507 6.91802C0.33774 8.8671 0.126505 11.0118 0.53808 13.0809C0.949656 15.1501 1.96556 17.0507 3.45732 18.5424C4.94908 20.0342 6.84969 21.0501 8.91882 21.4617C10.988 21.8733 13.1327 21.662 15.0817 20.8547C17.0308 20.0474 18.6967 18.6802 19.8688 16.9261C21.0409 15.1719 21.6665 13.1096 21.6665 11C21.6665 9.59921 21.3905 8.21216 20.8545 6.91802C20.3184 5.62388 19.5327 4.448 18.5423 3.45751C17.5518 2.46702 16.3759 1.68131 15.0817 1.14526C13.7876 0.609214 12.4006 0.333313 10.9998 0.333313ZM12.0665 16.3333C12.0665 16.6162 11.9541 16.8875 11.754 17.0876C11.554 17.2876 11.2827 17.4 10.9998 17.4C10.7169 17.4 10.4456 17.2876 10.2455 17.0876C10.0455 16.8875 9.93312 16.6162 9.93312 16.3333V9.93331C9.93312 9.65041 10.0455 9.3791 10.2455 9.17906C10.4456 8.97903 10.7169 8.86664 10.9998 8.86664C11.2827 8.86664 11.554 8.97903 11.754 9.17906C11.9541 9.3791 12.0665 9.65041 12.0665 9.93331V16.3333ZM10.9998 6.73331C10.6833 6.73331 10.374 6.63947 10.1109 6.46366C9.84776 6.28785 9.64268 6.03797 9.52158 5.74561C9.40048 5.45324 9.36879 5.13154 9.43053 4.82117C9.49227 4.5108 9.64465 4.22571 9.86842 4.00194C10.0922 3.77818 10.3773 3.62579 10.6876 3.56406C10.998 3.50232 11.3197 3.534 11.6121 3.65511C11.9044 3.77621 12.1543 3.98128 12.3301 4.2444C12.5059 4.50752 12.5998 4.81686 12.5998 5.13331C12.5998 5.55766 12.4312 5.96462 12.1312 6.26468C11.8311 6.56474 11.4241 6.73331 10.9998 6.73331Z" fill="#7A7A85"/>
</svg>
