<svg width="20" height="20" viewBox="0 0 20 20" fill="none" xmlns="http://www.w3.org/2000/svg">
    <path fill-rule="evenodd" clip-rule="evenodd" d="M7.5924 1.20027C7.34888 1.4078 7.22711 1.51158 7.09706 1.59874C6.79896 1.79854 6.46417 1.93721 6.1121 2.00672C5.95851 2.03705 5.79903 2.04977 5.48008 2.07522C4.6787 2.13918 4.278 2.17115 3.94371 2.28923C3.17051 2.56233 2.56233 3.17051 2.28923 3.94371C2.17115 4.278 2.13918 4.6787 2.07522 5.48008C2.04977 5.79903 2.03705 5.95851 2.00672 6.1121C1.93721 6.46417 1.79854 6.79896 1.59874 7.09706C1.51158 7.22711 1.40781 7.34887 1.20027 7.5924C0.678833 8.2043 0.418103 8.5102 0.265222 8.8301C-0.0884075 9.57 -0.0884075 10.43 0.265222 11.1699C0.418112 11.4898 0.678833 11.7957 1.20027 12.4076C1.40778 12.6511 1.51158 12.7729 1.59874 12.9029C1.79854 13.201 1.93721 13.5358 2.00672 13.8879C2.03705 14.0415 2.04977 14.201 2.07522 14.5199C2.13918 15.3213 2.17115 15.722 2.28923 16.0563C2.56233 16.8295 3.17051 17.4377 3.94371 17.7108C4.278 17.8288 4.6787 17.8608 5.48008 17.9248C5.79903 17.9502 5.95851 17.963 6.1121 17.9933C6.46417 18.0628 6.79896 18.2015 7.09706 18.4013C7.22711 18.4884 7.34887 18.5922 7.5924 18.7997C8.2043 19.3212 8.5102 19.5819 8.8301 19.7348C9.57 20.0884 10.43 20.0884 11.1699 19.7348C11.4898 19.5819 11.7957 19.3212 12.4076 18.7997C12.6511 18.5922 12.7729 18.4884 12.9029 18.4013C13.201 18.2015 13.5358 18.0628 13.8879 17.9933C14.0415 17.963 14.201 17.9502 14.5199 17.9248C15.3213 17.8608 15.722 17.8288 16.0563 17.7108C16.8295 17.4377 17.4377 16.8295 17.7108 16.0563C17.8288 15.722 17.8608 15.3213 17.9248 14.5199C17.9502 14.201 17.963 14.0415 17.9933 13.8879C18.0628 13.5358 18.2015 13.201 18.4013 12.9029C18.4884 12.7729 18.5922 12.6511 18.7997 12.4076C19.3212 11.7957 19.5819 11.4898 19.7348 11.1699C20.0884 10.43 20.0884 9.57 19.7348 8.8301C19.5819 8.5102 19.3212 8.2043 18.7997 7.5924C18.5922 7.34887 18.4884 7.22711 18.4013 7.09706C18.2015 6.79896 18.0628 6.46417 17.9933 6.1121C17.963 5.95851 17.9502 5.79903 17.9248 5.48008C17.8608 4.6787 17.8288 4.278 17.7108 3.94371C17.4377 3.17051 16.8295 2.56233 16.0563 2.28923C15.722 2.17115 15.3213 2.13918 14.5199 2.07522C14.201 2.04977 14.0415 2.03705 13.8879 2.00672C13.5358 1.93721 13.201 1.79854 12.9029 1.59874C12.7729 1.51158 12.6511 1.40781 12.4076 1.20027C11.7957 0.678833 11.4898 0.418112 11.1699 0.265222C10.43 -0.0884075 9.57 -0.0884075 8.8301 0.265222C8.5102 0.418103 8.2043 0.678833 7.5924 1.20027ZM14.3735 7.86314C14.6913 7.5453 14.6913 7.03 14.3735 6.71216C14.0557 6.39433 13.5403 6.39433 13.2225 6.71216L8.3723 11.5624L6.77746 9.9676C6.45963 9.6498 5.94432 9.6498 5.62649 9.9676C5.30866 10.2854 5.30866 10.8007 5.62649 11.1186L7.79678 13.2889C8.1146 13.6067 8.6299 13.6067 8.9478 13.2889L14.3735 7.86314Z" fill="#0C77F0"/>
    <path d="M14.3735 7.86314C14.6913 7.5453 14.6913 7.03 14.3735 6.71216C14.0557 6.39433 13.5403 6.39433 13.2225 6.71216L8.3723 11.5624L6.77746 9.9676C6.45963 9.6498 5.94432 9.6498 5.62649 9.9676C5.30866 10.2854 5.30866 10.8007 5.62649 11.1186L7.79678 13.2889C8.1146 13.6067 8.6299 13.6067 8.9478 13.2889L14.3735 7.86314Z" fill="#F1F1F3"/>
</svg>
