<svg width="22" height="20" viewBox="0 0 22 20" fill="none" xmlns="http://www.w3.org/2000/svg">
    <path d="M20.6 0.399994H2.46667C1.90087 0.399994 1.35825 0.624755 0.958171 1.02483C0.558093 1.42491 0.333332 1.96753 0.333332 2.53333V17.4667C0.333332 18.0325 0.558093 18.5751 0.958171 18.9752C1.35825 19.3752 1.90087 19.6 2.46667 19.6H19.5333C20.0991 19.6 20.6417 19.3752 21.0418 18.9752C21.4419 18.5751 21.6667 18.0325 21.6667 17.4667V5.73333C21.6667 5.45043 21.5543 5.17912 21.3542 4.97908C21.1542 4.77904 20.8829 4.66666 20.6 4.66666H3.53333C3.25043 4.66666 2.97912 4.55428 2.77908 4.35424C2.57905 4.1542 2.46667 3.88289 2.46667 3.59999C2.46667 3.3171 2.57905 3.04579 2.77908 2.84575C2.97912 2.64571 3.25043 2.53333 3.53333 2.53333H21.6667V1.46666C21.6667 1.18376 21.5543 0.912452 21.3542 0.712413C21.1542 0.512374 20.8829 0.399994 20.6 0.399994ZM17.9333 10.5333C18.2498 10.5333 18.5591 10.6272 18.8222 10.803C19.0854 10.9788 19.2904 11.2287 19.4115 11.521C19.5326 11.8134 19.5643 12.1351 19.5026 12.4455C19.4409 12.7558 19.2885 13.0409 19.0647 13.2647C18.8409 13.4885 18.5558 13.6408 18.2455 13.7026C17.9351 13.7643 17.6134 13.7326 17.321 13.6115C17.0287 13.4904 16.7788 13.2854 16.603 13.0222C16.4272 12.7591 16.3333 12.4498 16.3333 12.1333C16.3333 11.709 16.5019 11.302 16.802 11.002C17.102 10.7019 17.509 10.5333 17.9333 10.5333Z" fill="#7A7A85"/>
</svg>
