<svg width="900" height="116" viewBox="0 0 900 116" fill="none" xmlns="http://www.w3.org/2000/svg">
    <rect width="900" height="116" rx="12" fill="#242429"/>
    <path d="M17.48 38V23H21.12V38H17.48ZM23.34 30.32L29.52 23H33.6L27.44 30.14L33.82 38H29.46L23.34 30.32ZM19.5 28.8H26.86V32H19.5V28.8ZM43.0964 31.64C43.0964 30.8133 42.7831 30.1733 42.1564 29.72C41.5431 29.2667 40.5764 29.04 39.2564 29.04C38.4831 29.04 37.6897 29.1333 36.8764 29.32C36.0631 29.5067 35.3031 29.7867 34.5964 30.16V27.52C35.4631 27.0933 36.3431 26.7867 37.2364 26.6C38.1431 26.4 39.1031 26.3 40.1164 26.3C41.4497 26.3 42.5897 26.5 43.5364 26.9C44.4964 27.2867 45.2497 27.8667 45.7964 28.64C46.3431 29.4133 46.6164 30.3533 46.6164 31.46V38H43.0964V31.64ZM38.5564 30.74C40.2764 30.6867 41.5964 30.8133 42.5164 31.12C43.4497 31.4133 43.9631 31.6467 44.0564 31.82C44.1497 31.98 44.1964 32.8733 44.1964 34.5C44.1964 34.8333 44.0631 35.22 43.7964 35.66C43.5297 36.0867 43.1497 36.5067 42.6564 36.92C42.1631 37.32 41.5697 37.6533 40.8764 37.92C40.1831 38.1867 39.4097 38.32 38.5564 38.32C37.6231 38.32 36.7831 38.1667 36.0364 37.86C35.3031 37.5533 34.7231 37.12 34.2964 36.56C33.8697 35.9867 33.6564 35.3067 33.6564 34.52C33.6564 33.7467 33.8697 33.08 34.2964 32.52C34.7364 31.9467 35.3231 31.5133 36.0564 31.22C36.8031 30.9267 37.6364 30.7667 38.5564 30.74ZM40.3564 32.86C39.0631 32.86 38.1697 33 37.6764 33.28C37.1964 33.56 36.9564 33.92 36.9564 34.36C36.9564 34.8133 37.1964 35.1867 37.6764 35.48C38.1564 35.76 38.8164 35.9 39.6564 35.9C40.6697 35.9 41.4964 35.6333 42.1364 35.1C42.7764 34.5533 43.0964 33.9333 43.0964 33.24C42.5764 32.9867 41.6631 32.86 40.3564 32.86ZM48.8606 38V26.6H52.4406V38H48.8606ZM58.3806 38L53.6006 32.16L58.2806 26.6H62.2406L57.4806 32L62.5606 38H58.3806ZM50.9006 30.84H56.6406V33.54H50.9006V30.84ZM68.3463 38V32.3V26.6H77.2863C78.3796 26.6 79.2463 26.86 79.8863 27.38C80.5396 27.8867 80.8663 28.58 80.8663 29.46C80.8663 30.2867 80.5396 30.96 79.8863 31.48C79.2463 31.9867 78.3463 32.2933 77.1863 32.4L77.4263 31.82C78.7729 31.86 79.7996 32.14 80.5063 32.66C81.2129 33.1667 81.5663 33.88 81.5663 34.8C81.5663 35.7867 81.2063 36.5667 80.4863 37.14C79.7663 37.7133 78.7863 38 77.5463 38H68.3463ZM71.8063 37.22L70.4263 35.72H76.4063C76.9396 35.72 77.3329 35.6133 77.5863 35.4C77.8396 35.1733 77.9662 34.86 77.9662 34.46C77.9662 34.0867 77.8263 33.7867 77.5463 33.56C77.2663 33.3333 76.8196 33.22 76.2063 33.22H70.5263V31.24H75.7663C76.2729 31.24 76.6463 31.1333 76.8863 30.92C77.1263 30.7067 77.2463 30.42 77.2463 30.06C77.2463 29.7133 77.1329 29.4333 76.9063 29.22C76.6929 29.0067 76.3463 28.9 75.8663 28.9H70.4463L71.8063 27.4V32.3V37.22ZM92.4714 31.64C92.4714 30.8133 92.1581 30.1733 91.5314 29.72C90.9181 29.2667 89.9514 29.04 88.6314 29.04C87.8581 29.04 87.0647 29.1333 86.2514 29.32C85.4381 29.5067 84.6781 29.7867 83.9714 30.16V27.52C84.8381 27.0933 85.7181 26.7867 86.6114 26.6C87.5181 26.4 88.4781 26.3 89.4914 26.3C90.8247 26.3 91.9647 26.5 92.9114 26.9C93.8714 27.2867 94.6247 27.8667 95.1714 28.64C95.7181 29.4133 95.9914 30.3533 95.9914 31.46V38H92.4714V31.64ZM87.9314 30.74C89.6514 30.6867 90.9714 30.8133 91.8914 31.12C92.8247 31.4133 93.3381 31.6467 93.4314 31.82C93.5247 31.98 93.5714 32.8733 93.5714 34.5C93.5714 34.8333 93.4381 35.22 93.1714 35.66C92.9047 36.0867 92.5247 36.5067 92.0314 36.92C91.5381 37.32 90.9447 37.6533 90.2514 37.92C89.5581 38.1867 88.7847 38.32 87.9314 38.32C86.9981 38.32 86.1581 38.1667 85.4114 37.86C84.6781 37.5533 84.0981 37.12 83.6714 36.56C83.2447 35.9867 83.0314 35.3067 83.0314 34.52C83.0314 33.7467 83.2447 33.08 83.6714 32.52C84.1114 31.9467 84.6981 31.5133 85.4314 31.22C86.1781 30.9267 87.0114 30.7667 87.9314 30.74ZM89.7314 32.86C88.4381 32.86 87.5447 33 87.0514 33.28C86.5714 33.56 86.3314 33.92 86.3314 34.36C86.3314 34.8133 86.5714 35.1867 87.0514 35.48C87.5314 35.76 88.1914 35.9 89.0314 35.9C90.0447 35.9 90.8714 35.6333 91.5114 35.1C92.1514 34.5533 92.4714 33.9333 92.4714 33.24C91.9514 32.9867 91.0381 32.86 89.7314 32.86ZM98.2356 38V26.6H103.616L107.536 36.1H106.456L110.356 26.6H115.736V38H112.356V27.92H113.036L108.636 38H105.316L100.916 27.96L101.596 27.94V38H98.2356ZM136.216 26.6V38H132.636V27.66L134.276 29.3H125.156L126.796 27.66V38H123.216V26.6H136.216ZM140.605 26.6H152.585V38H149.005V27.66L150.645 29.3H142.405L143.945 27.94C144.012 28.7533 144.065 29.4933 144.105 30.16C144.159 30.8267 144.185 31.4333 144.185 31.98C144.185 34.1667 143.852 35.76 143.185 36.76C142.532 37.7467 141.465 38.24 139.985 38.24C139.572 38.24 139.179 38.1933 138.805 38.1C138.432 38.02 138.065 37.88 137.705 37.68V35.08C137.945 35.1733 138.179 35.2467 138.405 35.3C138.645 35.34 138.859 35.36 139.045 35.36C139.712 35.36 140.192 35.06 140.485 34.46C140.779 33.86 140.925 32.8667 140.925 31.48C140.925 30.84 140.899 30.1133 140.845 29.3C140.792 28.4733 140.712 27.5733 140.605 26.6ZM164.092 31.64C164.092 30.8133 163.779 30.1733 163.153 29.72C162.539 29.2667 161.573 29.04 160.253 29.04C159.479 29.04 158.686 29.1333 157.873 29.32C157.059 29.5067 156.299 29.7867 155.593 30.16V27.52C156.459 27.0933 157.339 26.7867 158.233 26.6C159.139 26.4 160.099 26.3 161.113 26.3C162.446 26.3 163.586 26.5 164.533 26.9C165.493 27.2867 166.246 27.8667 166.793 28.64C167.339 29.4133 167.613 30.3533 167.613 31.46V38H164.092V31.64ZM159.553 30.74C161.273 30.6867 162.593 30.8133 163.513 31.12C164.446 31.4133 164.959 31.6467 165.053 31.82C165.146 31.98 165.193 32.8733 165.193 34.5C165.193 34.8333 165.059 35.22 164.793 35.66C164.526 36.0867 164.146 36.5067 163.653 36.92C163.159 37.32 162.566 37.6533 161.873 37.92C161.179 38.1867 160.406 38.32 159.553 38.32C158.619 38.32 157.779 38.1667 157.033 37.86C156.299 37.5533 155.719 37.12 155.293 36.56C154.866 35.9867 154.653 35.3067 154.653 34.52C154.653 33.7467 154.866 33.08 155.293 32.52C155.733 31.9467 156.319 31.5133 157.053 31.22C157.799 30.9267 158.633 30.7667 159.553 30.74ZM161.353 32.86C160.059 32.86 159.166 33 158.673 33.28C158.193 33.56 157.953 33.92 157.953 34.36C157.953 34.8133 158.193 35.1867 158.673 35.48C159.153 35.76 159.813 35.9 160.653 35.9C161.666 35.9 162.493 35.6333 163.133 35.1C163.773 34.5533 164.092 33.9333 164.092 33.24C163.573 32.9867 162.659 32.86 161.353 32.86ZM173.377 27.86H176.957V38H173.377V27.86ZM168.917 26.6H181.417V29.34H168.917V26.6ZM192.313 41.3V35L192.593 34.26V30.24L192.313 29.5V22.6H195.853V29.5L195.593 30.24V34.24L195.853 35V41.3H192.313ZM194.673 32.3C194.886 31.0867 195.259 30.0333 195.793 29.14C196.326 28.2333 197.006 27.5333 197.833 27.04C198.673 26.5467 199.619 26.3 200.673 26.3C201.766 26.3 202.726 26.5533 203.553 27.06C204.379 27.5533 205.026 28.2533 205.493 29.16C205.959 30.0533 206.193 31.1 206.193 32.3C206.193 33.5 205.959 34.5533 205.493 35.46C205.026 36.3533 204.379 37.0533 203.553 37.56C202.726 38.0667 201.766 38.32 200.673 38.32C199.606 38.32 198.659 38.0733 197.833 37.58C197.019 37.0733 196.339 36.3733 195.793 35.48C195.259 34.5733 194.886 33.5133 194.673 32.3ZM202.553 32.3C202.553 31.6733 202.426 31.12 202.173 30.64C201.933 30.1467 201.593 29.7667 201.153 29.5C200.726 29.22 200.219 29.08 199.633 29.08C198.753 29.08 197.959 29.38 197.253 29.98C196.546 30.58 196.033 31.3533 195.713 32.3C196.033 33.2467 196.546 34.0267 197.253 34.64C197.959 35.24 198.753 35.54 199.633 35.54C200.219 35.54 200.726 35.4 201.153 35.12C201.593 34.84 201.933 34.46 202.173 33.98C202.426 33.5 202.553 32.94 202.553 32.3ZM193.493 32.3C193.293 33.5133 192.919 34.5733 192.373 35.48C191.839 36.3733 191.159 37.0733 190.333 37.58C189.519 38.0733 188.586 38.32 187.533 38.32C186.426 38.32 185.459 38.0667 184.633 37.56C183.806 37.0533 183.159 36.3533 182.693 35.46C182.239 34.5533 182.013 33.5 182.013 32.3C182.013 31.1 182.239 30.0533 182.693 29.16C183.159 28.2533 183.806 27.5533 184.633 27.06C185.459 26.5533 186.426 26.3 187.533 26.3C188.586 26.3 189.519 26.5467 190.333 27.04C191.159 27.5333 191.846 28.2333 192.393 29.14C192.939 30.0333 193.306 31.0867 193.493 32.3ZM185.633 32.3C185.633 32.94 185.753 33.5 185.993 33.98C186.246 34.46 186.586 34.84 187.013 35.12C187.453 35.4 187.959 35.54 188.533 35.54C189.439 35.54 190.239 35.24 190.933 34.64C191.626 34.0267 192.146 33.2467 192.493 32.3C192.146 31.3533 191.626 30.58 190.933 29.98C190.239 29.38 189.439 29.08 188.533 29.08C187.959 29.08 187.453 29.22 187.013 29.5C186.586 29.7667 186.246 30.1467 185.993 30.64C185.753 31.12 185.633 31.6733 185.633 32.3ZM214.699 38.32C213.272 38.32 212.019 38.0667 210.939 37.56C209.859 37.0533 209.019 36.3467 208.419 35.44C207.819 34.5333 207.519 33.4867 207.519 32.3C207.519 31.1 207.819 30.0533 208.419 29.16C209.019 28.2533 209.859 27.5533 210.939 27.06C212.019 26.5533 213.272 26.3 214.699 26.3C216.139 26.3 217.392 26.5533 218.459 27.06C219.539 27.5533 220.379 28.2533 220.979 29.16C221.579 30.0533 221.879 31.1 221.879 32.3C221.879 33.5 221.579 34.5533 220.979 35.46C220.379 36.3533 219.539 37.0533 218.459 37.56C217.379 38.0667 216.126 38.32 214.699 38.32ZM214.699 35.6C215.446 35.6 216.079 35.4667 216.599 35.2C217.132 34.9333 217.539 34.5533 217.819 34.06C218.112 33.5667 218.259 32.98 218.259 32.3C218.259 31.62 218.112 31.0333 217.819 30.54C217.539 30.0467 217.132 29.6667 216.599 29.4C216.079 29.1333 215.446 29 214.699 29C213.979 29 213.352 29.1333 212.819 29.4C212.286 29.6667 211.872 30.0467 211.579 30.54C211.299 31.0333 211.159 31.62 211.159 32.3C211.159 32.9933 211.299 33.5867 211.579 34.08C211.872 34.56 212.286 34.9333 212.819 35.2C213.352 35.4667 213.979 35.6 214.699 35.6ZM223.743 26.6H227.323V30.1L227.183 30.58V33.46L227.323 34.32V41.3H223.743V26.6ZM226.123 32.3C226.337 31.0867 226.723 30.0333 227.283 29.14C227.843 28.2333 228.55 27.5333 229.403 27.04C230.27 26.5467 231.23 26.3 232.283 26.3C233.403 26.3 234.383 26.5533 235.223 27.06C236.077 27.5533 236.743 28.2533 237.223 29.16C237.703 30.0533 237.943 31.1 237.943 32.3C237.943 33.5 237.703 34.5533 237.223 35.46C236.743 36.3533 236.077 37.0533 235.223 37.56C234.383 38.0667 233.403 38.32 232.283 38.32C231.217 38.32 230.257 38.0733 229.403 37.58C228.563 37.0733 227.857 36.3733 227.283 35.48C226.723 34.5733 226.337 33.5133 226.123 32.3ZM234.303 32.3C234.303 31.6733 234.17 31.12 233.903 30.64C233.65 30.1467 233.297 29.7667 232.843 29.5C232.39 29.22 231.863 29.08 231.263 29.08C230.663 29.08 230.09 29.22 229.543 29.5C229.01 29.7667 228.543 30.1467 228.143 30.64C227.743 31.12 227.43 31.6733 227.203 32.3C227.43 32.94 227.743 33.5 228.143 33.98C228.543 34.46 229.01 34.84 229.543 35.12C230.09 35.4 230.663 35.54 231.263 35.54C231.863 35.54 232.39 35.4 232.843 35.12C233.297 34.84 233.65 34.46 233.903 33.98C234.17 33.5 234.303 32.94 234.303 32.3ZM239.857 38V26.6H245.237L249.157 36.1H248.077L251.977 26.6H257.357V38H253.977V27.92H254.657L250.257 38H246.937L242.537 27.96L243.217 27.94V38H239.857ZM268.839 31.64C268.839 30.8133 268.525 30.1733 267.899 29.72C267.285 29.2667 266.319 29.04 264.999 29.04C264.225 29.04 263.432 29.1333 262.619 29.32C261.805 29.5067 261.045 29.7867 260.339 30.16V27.52C261.205 27.0933 262.085 26.7867 262.979 26.6C263.885 26.4 264.845 26.3 265.859 26.3C267.192 26.3 268.332 26.5 269.279 26.9C270.239 27.2867 270.992 27.8667 271.539 28.64C272.085 29.4133 272.359 30.3533 272.359 31.46V38H268.839V31.64ZM264.299 30.74C266.019 30.6867 267.339 30.8133 268.259 31.12C269.192 31.4133 269.705 31.6467 269.799 31.82C269.892 31.98 269.939 32.8733 269.939 34.5C269.939 34.8333 269.805 35.22 269.539 35.66C269.272 36.0867 268.892 36.5067 268.399 36.92C267.905 37.32 267.312 37.6533 266.619 37.92C265.925 38.1867 265.152 38.32 264.299 38.32C263.365 38.32 262.525 38.1667 261.779 37.86C261.045 37.5533 260.465 37.12 260.039 36.56C259.612 35.9867 259.399 35.3067 259.399 34.52C259.399 33.7467 259.612 33.08 260.039 32.52C260.479 31.9467 261.065 31.5133 261.799 31.22C262.545 30.9267 263.379 30.7667 264.299 30.74ZM266.099 32.86C264.805 32.86 263.912 33 263.419 33.28C262.939 33.56 262.699 33.92 262.699 34.36C262.699 34.8133 262.939 35.1867 263.419 35.48C263.899 35.76 264.559 35.9 265.399 35.9C266.412 35.9 267.239 35.6333 267.879 35.1C268.519 34.5533 268.839 33.9333 268.839 33.24C268.319 32.9867 267.405 32.86 266.099 32.86ZM278.343 32.44C278.343 31.8267 278.509 31.2933 278.843 30.84C279.189 30.3733 279.749 29.96 280.523 29.6L282.043 28.84C282.403 28.6667 282.683 28.46 282.883 28.22C283.096 27.98 283.203 27.7133 283.203 27.42C283.203 26.8333 282.956 26.3733 282.463 26.04C281.969 25.6933 281.263 25.52 280.343 25.52C279.436 25.52 278.703 25.72 278.143 26.12C277.583 26.52 277.256 27.08 277.163 27.8H273.703C273.823 26.1867 274.463 24.9333 275.623 24.04C276.796 23.1333 278.376 22.68 280.363 22.68C282.336 22.68 283.876 23.0867 284.983 23.9C286.103 24.7 286.663 25.8133 286.663 27.24C286.663 27.9467 286.463 28.5933 286.063 29.18C285.663 29.7533 285.063 30.2333 284.263 30.62L282.583 31.42C282.249 31.5933 281.996 31.78 281.823 31.98C281.649 32.18 281.563 32.4333 281.563 32.74V33.18H278.443C278.403 33.0467 278.376 32.92 278.363 32.8C278.349 32.6667 278.343 32.5467 278.343 32.44ZM279.943 38.2C279.343 38.2 278.849 38.02 278.463 37.66C278.089 37.3 277.903 36.8333 277.903 36.26C277.903 35.7 278.089 35.24 278.463 34.88C278.849 34.52 279.343 34.34 279.943 34.34C280.556 34.34 281.049 34.52 281.423 34.88C281.809 35.24 282.003 35.7 282.003 36.26C282.003 36.8333 281.809 37.3 281.423 37.66C281.049 38.02 280.556 38.2 279.943 38.2Z" fill="#F1F1F3"/>
    <path d="M34.4958 68.1523C35.0995 66.8871 36.9005 66.8871 37.5042 68.1523L39.9307 73.2373C40.1736 73.7465 40.6577 74.0982 41.217 74.1719L46.803 74.9083C48.1929 75.0915 48.7494 76.8043 47.7327 77.7694L43.6463 81.6485C43.2371 82.0369 43.0522 82.606 43.155 83.1607L44.1808 88.7009C44.4361 90.0793 42.9791 91.1379 41.747 90.4692L36.795 87.7815C36.2992 87.5124 35.7008 87.5124 35.205 87.7815L30.253 90.4692C29.0209 91.1379 27.5639 90.0793 27.8192 88.7009L28.845 83.1607C28.9478 82.606 28.7629 82.0369 28.3537 81.6485L24.2673 77.7694C23.2506 76.8043 23.8071 75.0915 25.197 74.9083L30.783 74.1719C31.3423 74.0982 31.8264 73.7465 32.0693 73.2373L34.4958 68.1523Z" fill="#494950"/>
    <path d="M74.4958 68.1523C75.0995 66.8871 76.9005 66.8871 77.5042 68.1523L79.9307 73.2373C80.1736 73.7465 80.6577 74.0982 81.217 74.1719L86.803 74.9083C88.1929 75.0915 88.7494 76.8043 87.7327 77.7694L83.6463 81.6485C83.2371 82.0369 83.0522 82.606 83.155 83.1607L84.1808 88.7009C84.4361 90.0793 82.9791 91.1379 81.747 90.4692L76.795 87.7815C76.2992 87.5124 75.7008 87.5124 75.205 87.7815L70.253 90.4692C69.0209 91.1379 67.5639 90.0793 67.8192 88.7009L68.845 83.1607C68.9478 82.606 68.7629 82.0369 68.3537 81.6485L64.2673 77.7694C63.2506 76.8043 63.8071 75.0915 65.197 74.9083L70.783 74.1719C71.3423 74.0982 71.8264 73.7465 72.0693 73.2373L74.4958 68.1523Z" fill="#494950"/>
    <path d="M114.496 68.1523C115.1 66.8871 116.9 66.8871 117.504 68.1523L119.931 73.2373C120.174 73.7465 120.658 74.0982 121.217 74.1719L126.803 74.9083C128.193 75.0915 128.749 76.8043 127.733 77.7694L123.646 81.6485C123.237 82.0369 123.052 82.606 123.155 83.1607L124.181 88.7009C124.436 90.0793 122.979 91.1379 121.747 90.4692L116.795 87.7815C116.299 87.5124 115.701 87.5124 115.205 87.7815L110.253 90.4692C109.021 91.1379 107.564 90.0793 107.819 88.7009L108.845 83.1607C108.948 82.606 108.763 82.0369 108.354 81.6485L104.267 77.7694C103.251 76.8043 103.807 75.0915 105.197 74.9083L110.783 74.1719C111.342 74.0982 111.826 73.7465 112.069 73.2373L114.496 68.1523Z" fill="#494950"/>
    <path d="M154.496 68.1523C155.1 66.8871 156.9 66.8871 157.504 68.1523L159.931 73.2373C160.174 73.7465 160.658 74.0982 161.217 74.1719L166.803 74.9083C168.193 75.0915 168.749 76.8043 167.733 77.7694L163.646 81.6485C163.237 82.0369 163.052 82.606 163.155 83.1607L164.181 88.7009C164.436 90.0793 162.979 91.1379 161.747 90.4692L156.795 87.7815C156.299 87.5124 155.701 87.5124 155.205 87.7815L150.253 90.4692C149.021 91.1379 147.564 90.0793 147.819 88.7009L148.845 83.1607C148.948 82.606 148.763 82.0369 148.354 81.6485L144.267 77.7694C143.251 76.8043 143.807 75.0915 145.197 74.9083L150.783 74.1719C151.342 74.0982 151.826 73.7465 152.069 73.2373L154.496 68.1523Z" fill="#494950"/>
    <path d="M194.496 68.1523C195.1 66.8871 196.9 66.8871 197.504 68.1523L199.931 73.2373C200.174 73.7465 200.658 74.0982 201.217 74.1719L206.803 74.9083C208.193 75.0915 208.749 76.8043 207.733 77.7694L203.646 81.6485C203.237 82.0369 203.052 82.606 203.155 83.1607L204.181 88.7009C204.436 90.0793 202.979 91.1379 201.747 90.4692L196.795 87.7815C196.299 87.5124 195.701 87.5124 195.205 87.7815L190.253 90.4692C189.021 91.1379 187.564 90.0793 187.819 88.7009L188.845 83.1607C188.948 82.606 188.763 82.0369 188.354 81.6485L184.267 77.7694C183.251 76.8043 183.807 75.0915 185.197 74.9083L190.783 74.1719C191.342 74.0982 191.826 73.7465 192.069 73.2373L194.496 68.1523Z" fill="#494950"/>
</svg>
