<svg width="900" height="94" viewBox="0 0 900 94" fill="none" xmlns="http://www.w3.org/2000/svg">
    <rect width="900" height="94" rx="12" fill="#242429"/>
    <path d="M30.02 29.12V31.88H18.58V29.12H30.02ZM20.68 30.5V36.76L19.14 35H30.68V38H17.02V30.5V23H30.58V26H19.14L20.68 24.24V30.5ZM45.8506 33.3C45.7306 34.2867 45.3573 35.16 44.7306 35.92C44.104 36.6667 43.2973 37.2533 42.3106 37.68C41.324 38.1067 40.2173 38.32 38.9906 38.32C37.6173 38.32 36.404 38.0667 35.3506 37.56C34.3106 37.0533 33.4973 36.3467 32.9106 35.44C32.324 34.5333 32.0306 33.4867 32.0306 32.3C32.0306 31.1133 32.324 30.0733 32.9106 29.18C33.4973 28.2733 34.3106 27.5667 35.3506 27.06C36.404 26.5533 37.6173 26.3 38.9906 26.3C40.2173 26.3 41.324 26.5133 42.3106 26.94C43.2973 27.3533 44.104 27.94 44.7306 28.7C45.3573 29.4467 45.7306 30.32 45.8506 31.32H42.2706C42.1106 30.5733 41.7306 30 41.1306 29.6C40.544 29.2 39.8306 29 38.9906 29C38.324 29 37.7373 29.1333 37.2306 29.4C36.724 29.6533 36.3373 30.0267 36.0706 30.52C35.804 31.0133 35.6706 31.6067 35.6706 32.3C35.6706 32.9933 35.804 33.5867 36.0706 34.08C36.3373 34.5733 36.724 34.9533 37.2306 35.22C37.7373 35.4733 38.324 35.6 38.9906 35.6C39.844 35.6 40.564 35.3933 41.1506 34.98C41.7373 34.5533 42.1106 33.9933 42.2706 33.3H45.8506ZM50.7205 27.86H54.3005V38H50.7205V27.86ZM46.2605 26.6H58.7605V29.34H46.2605V26.6ZM60.2669 38V26.6H63.8269V37.08L62.7069 35.44H67.0069C67.5802 35.44 68.0202 35.3 68.3269 35.02C68.6469 34.74 68.8069 34.3533 68.8069 33.86C68.8069 33.34 68.6469 32.94 68.3269 32.66C68.0202 32.38 67.5802 32.24 67.0069 32.24H62.7069V29.8H67.5669C68.5402 29.8 69.3935 29.9733 70.1269 30.32C70.8602 30.6533 71.4269 31.1267 71.8269 31.74C72.2269 32.3533 72.4269 33.0733 72.4269 33.9C72.4269 34.7133 72.2269 35.4333 71.8269 36.06C71.4269 36.6733 70.8669 37.1533 70.1469 37.5C69.4269 37.8333 68.5802 38 67.6069 38H60.2669ZM78.3072 38V32.3V26.6H87.2472C88.3405 26.6 89.2072 26.86 89.8472 27.38C90.5005 27.8867 90.8272 28.58 90.8272 29.46C90.8272 30.2867 90.5005 30.96 89.8472 31.48C89.2072 31.9867 88.3072 32.2933 87.1472 32.4L87.3872 31.82C88.7339 31.86 89.7605 32.14 90.4672 32.66C91.1739 33.1667 91.5272 33.88 91.5272 34.8C91.5272 35.7867 91.1672 36.5667 90.4472 37.14C89.7272 37.7133 88.7472 38 87.5072 38H78.3072ZM81.7672 37.22L80.3872 35.72H86.3672C86.9005 35.72 87.2939 35.6133 87.5472 35.4C87.8005 35.1733 87.9272 34.86 87.9272 34.46C87.9272 34.0867 87.7872 33.7867 87.5072 33.56C87.2272 33.3333 86.7805 33.22 86.1672 33.22H80.4872V31.24H85.7272C86.2339 31.24 86.6072 31.1333 86.8472 30.92C87.0872 30.7067 87.2072 30.42 87.2072 30.06C87.2072 29.7133 87.0939 29.4333 86.8672 29.22C86.6539 29.0067 86.3072 28.9 85.8272 28.9H80.4072L81.7672 27.4V32.3V37.22ZM99.9723 38.32C98.5457 38.32 97.2923 38.0667 96.2123 37.56C95.1323 37.0533 94.2923 36.3467 93.6923 35.44C93.0923 34.5333 92.7923 33.4867 92.7923 32.3C92.7923 31.1 93.0923 30.0533 93.6923 29.16C94.2923 28.2533 95.1323 27.5533 96.2123 27.06C97.2923 26.5533 98.5457 26.3 99.9723 26.3C101.412 26.3 102.666 26.5533 103.732 27.06C104.812 27.5533 105.652 28.2533 106.252 29.16C106.852 30.0533 107.152 31.1 107.152 32.3C107.152 33.5 106.852 34.5533 106.252 35.46C105.652 36.3533 104.812 37.0533 103.732 37.56C102.652 38.0667 101.399 38.32 99.9723 38.32ZM99.9723 35.6C100.719 35.6 101.352 35.4667 101.872 35.2C102.406 34.9333 102.812 34.5533 103.092 34.06C103.386 33.5667 103.532 32.98 103.532 32.3C103.532 31.62 103.386 31.0333 103.092 30.54C102.812 30.0467 102.406 29.6667 101.872 29.4C101.352 29.1333 100.719 29 99.9723 29C99.2523 29 98.6257 29.1333 98.0923 29.4C97.559 29.6667 97.1457 30.0467 96.8523 30.54C96.5723 31.0333 96.4323 31.62 96.4323 32.3C96.4323 32.9933 96.5723 33.5867 96.8523 34.08C97.1457 34.56 97.559 34.9333 98.0923 35.2C98.6257 35.4667 99.2523 35.6 99.9723 35.6ZM122.017 26.6V38H118.437V27.66L120.077 29.3H110.957L112.597 27.66V38H109.017V26.6H122.017ZM124.466 26.6H128.046V30.1L127.906 30.58V33.46L128.046 34.32V41.3H124.466V26.6ZM126.846 32.3C127.059 31.0867 127.446 30.0333 128.006 29.14C128.566 28.2333 129.273 27.5333 130.126 27.04C130.993 26.5467 131.953 26.3 133.006 26.3C134.126 26.3 135.106 26.5533 135.946 27.06C136.799 27.5533 137.466 28.2533 137.946 29.16C138.426 30.0533 138.666 31.1 138.666 32.3C138.666 33.5 138.426 34.5533 137.946 35.46C137.466 36.3533 136.799 37.0533 135.946 37.56C135.106 38.0667 134.126 38.32 133.006 38.32C131.939 38.32 130.979 38.0733 130.126 37.58C129.286 37.0733 128.579 36.3733 128.006 35.48C127.446 34.5733 127.059 33.5133 126.846 32.3ZM135.026 32.3C135.026 31.6733 134.893 31.12 134.626 30.64C134.373 30.1467 134.019 29.7667 133.566 29.5C133.113 29.22 132.586 29.08 131.986 29.08C131.386 29.08 130.813 29.22 130.266 29.5C129.733 29.7667 129.266 30.1467 128.866 30.64C128.466 31.12 128.153 31.6733 127.926 32.3C128.153 32.94 128.466 33.5 128.866 33.98C129.266 34.46 129.733 34.84 130.266 35.12C130.813 35.4 131.386 35.54 131.986 35.54C132.586 35.54 133.113 35.4 133.566 35.12C134.019 34.84 134.373 34.46 134.626 33.98C134.893 33.5 135.026 32.94 135.026 32.3ZM147.179 38.32C145.753 38.32 144.499 38.0667 143.419 37.56C142.339 37.0533 141.499 36.3467 140.899 35.44C140.299 34.5333 139.999 33.4867 139.999 32.3C139.999 31.1 140.299 30.0533 140.899 29.16C141.499 28.2533 142.339 27.5533 143.419 27.06C144.499 26.5533 145.753 26.3 147.179 26.3C148.619 26.3 149.873 26.5533 150.939 27.06C152.019 27.5533 152.859 28.2533 153.459 29.16C154.059 30.0533 154.359 31.1 154.359 32.3C154.359 33.5 154.059 34.5533 153.459 35.46C152.859 36.3533 152.019 37.0533 150.939 37.56C149.859 38.0667 148.606 38.32 147.179 38.32ZM147.179 35.6C147.926 35.6 148.559 35.4667 149.079 35.2C149.613 34.9333 150.019 34.5533 150.299 34.06C150.593 33.5667 150.739 32.98 150.739 32.3C150.739 31.62 150.593 31.0333 150.299 30.54C150.019 30.0467 149.613 29.6667 149.079 29.4C148.559 29.1333 147.926 29 147.179 29C146.459 29 145.833 29.1333 145.299 29.4C144.766 29.6667 144.353 30.0467 144.059 30.54C143.779 31.0333 143.639 31.62 143.639 32.3C143.639 32.9933 143.779 33.5867 144.059 34.08C144.353 34.56 144.766 34.9333 145.299 35.2C145.833 35.4667 146.459 35.6 147.179 35.6ZM169.464 33.3C169.344 34.2867 168.971 35.16 168.344 35.92C167.717 36.6667 166.911 37.2533 165.924 37.68C164.937 38.1067 163.831 38.32 162.604 38.32C161.231 38.32 160.017 38.0667 158.964 37.56C157.924 37.0533 157.111 36.3467 156.524 35.44C155.937 34.5333 155.644 33.4867 155.644 32.3C155.644 31.1133 155.937 30.0733 156.524 29.18C157.111 28.2733 157.924 27.5667 158.964 27.06C160.017 26.5533 161.231 26.3 162.604 26.3C163.831 26.3 164.937 26.5133 165.924 26.94C166.911 27.3533 167.717 27.94 168.344 28.7C168.971 29.4467 169.344 30.32 169.464 31.32H165.884C165.724 30.5733 165.344 30 164.744 29.6C164.157 29.2 163.444 29 162.604 29C161.937 29 161.351 29.1333 160.844 29.4C160.337 29.6533 159.951 30.0267 159.684 30.52C159.417 31.0133 159.284 31.6067 159.284 32.3C159.284 32.9933 159.417 33.5867 159.684 34.08C159.951 34.5733 160.337 34.9533 160.844 35.22C161.351 35.4733 161.937 35.6 162.604 35.6C163.457 35.6 164.177 35.3933 164.764 34.98C165.351 34.5533 165.724 33.9933 165.884 33.3H169.464ZM184.484 26.6H188.064V38H184.484V26.6ZM171.204 38V26.6H174.764V37.08L173.644 35.44H177.944C178.518 35.44 178.958 35.3 179.264 35.02C179.584 34.74 179.744 34.3533 179.744 33.86C179.744 33.34 179.584 32.94 179.264 32.66C178.958 32.38 178.518 32.24 177.944 32.24H173.644V29.8H178.504C179.478 29.8 180.331 29.9733 181.064 30.32C181.798 30.6533 182.364 31.1267 182.764 31.74C183.164 32.3533 183.364 33.0733 183.364 33.9C183.364 34.7133 183.164 35.4333 182.764 36.06C182.364 36.6733 181.804 37.1533 181.084 37.5C180.364 37.8333 179.518 38 178.544 38H171.204ZM194.241 32.44C194.241 31.8267 194.408 31.2933 194.741 30.84C195.088 30.3733 195.648 29.96 196.421 29.6L197.941 28.84C198.301 28.6667 198.581 28.46 198.781 28.22C198.995 27.98 199.101 27.7133 199.101 27.42C199.101 26.8333 198.855 26.3733 198.361 26.04C197.868 25.6933 197.161 25.52 196.241 25.52C195.335 25.52 194.601 25.72 194.041 26.12C193.481 26.52 193.155 27.08 193.061 27.8H189.601C189.721 26.1867 190.361 24.9333 191.521 24.04C192.695 23.1333 194.275 22.68 196.261 22.68C198.235 22.68 199.775 23.0867 200.881 23.9C202.001 24.7 202.561 25.8133 202.561 27.24C202.561 27.9467 202.361 28.5933 201.961 29.18C201.561 29.7533 200.961 30.2333 200.161 30.62L198.481 31.42C198.148 31.5933 197.895 31.78 197.721 31.98C197.548 32.18 197.461 32.4333 197.461 32.74V33.18H194.341C194.301 33.0467 194.275 32.92 194.261 32.8C194.248 32.6667 194.241 32.5467 194.241 32.44ZM195.841 38.2C195.241 38.2 194.748 38.02 194.361 37.66C193.988 37.3 193.801 36.8333 193.801 36.26C193.801 35.7 193.988 35.24 194.361 34.88C194.748 34.52 195.241 34.34 195.841 34.34C196.455 34.34 196.948 34.52 197.321 34.88C197.708 35.24 197.901 35.7 197.901 36.26C197.901 36.8333 197.708 37.3 197.321 37.66C196.948 38.02 196.455 38.2 195.841 38.2Z" fill="#F1F1F3"/>
    <path d="M17.4091 73V61.3636H21.4773C22.2879 61.3636 22.9564 61.5038 23.483 61.7841C24.0095 62.0606 24.4015 62.4337 24.6591 62.9034C24.9167 63.3693 25.0455 63.8864 25.0455 64.4545C25.0455 64.9545 24.9564 65.3674 24.7784 65.6932C24.6042 66.0189 24.3731 66.2765 24.0852 66.4659C23.8011 66.6553 23.4924 66.7955 23.1591 66.8864V67C23.5152 67.0227 23.8731 67.1477 24.233 67.375C24.5928 67.6023 24.8939 67.928 25.1364 68.3523C25.3788 68.7765 25.5 69.2955 25.5 69.9091C25.5 70.4924 25.3674 71.017 25.1023 71.483C24.8371 71.9489 24.4186 72.3182 23.8466 72.5909C23.2746 72.8636 22.5303 73 21.6136 73H17.4091ZM18.8182 71.75H21.6136C22.5341 71.75 23.1875 71.572 23.5739 71.2159C23.964 70.8561 24.1591 70.4205 24.1591 69.9091C24.1591 69.5152 24.0587 69.1515 23.858 68.8182C23.6572 68.4811 23.3712 68.2121 23 68.0114C22.6288 67.8068 22.1894 67.7045 21.6818 67.7045H18.8182V71.75ZM18.8182 66.4773H21.4318C21.8561 66.4773 22.2386 66.3939 22.5795 66.2273C22.9242 66.0606 23.197 65.8258 23.3977 65.5227C23.6023 65.2197 23.7045 64.8636 23.7045 64.4545C23.7045 63.9432 23.5265 63.5095 23.1705 63.1534C22.8144 62.7936 22.25 62.6136 21.4773 62.6136H18.8182V66.4773ZM28.4726 67.4318H30.9726C31.9953 67.4318 32.7775 67.6913 33.3192 68.2102C33.8609 68.7292 34.1317 69.3864 34.1317 70.1818C34.1317 70.7045 34.0105 71.1799 33.7681 71.608C33.5256 72.0322 33.1696 72.3712 32.6999 72.625C32.2302 72.875 31.6544 73 30.9726 73H27.3135V64.2727H28.6544V71.75H30.9726C31.5029 71.75 31.9385 71.6098 32.2794 71.3295C32.6203 71.0492 32.7908 70.6894 32.7908 70.25C32.7908 69.7879 32.6203 69.411 32.2794 69.1193C31.9385 68.8277 31.5029 68.6818 30.9726 68.6818H28.4726V67.4318ZM35.5181 73V64.2727H36.859V73H35.5181ZM47.9463 71.1818L50.9917 64.2727H52.2644L48.4917 73H47.4008L43.6963 64.2727H44.9463L47.9463 71.1818ZM44.5144 64.2727V73H43.1735V64.2727H44.5144ZM51.3781 73V64.2727H52.719V73H51.3781ZM58.399 73.1818C57.6111 73.1818 56.9198 72.9943 56.3251 72.6193C55.7342 72.2443 55.2721 71.7197 54.9388 71.0455C54.6092 70.3712 54.4444 69.5833 54.4444 68.6818C54.4444 67.7727 54.6092 66.9792 54.9388 66.3011C55.2721 65.6231 55.7342 65.0966 56.3251 64.7216C56.9198 64.3466 57.6111 64.1591 58.399 64.1591C59.1869 64.1591 59.8763 64.3466 60.4672 64.7216C61.0619 65.0966 61.524 65.6231 61.8535 66.3011C62.1869 66.9792 62.3535 67.7727 62.3535 68.6818C62.3535 69.5833 62.1869 70.3712 61.8535 71.0455C61.524 71.7197 61.0619 72.2443 60.4672 72.6193C59.8763 72.9943 59.1869 73.1818 58.399 73.1818ZM58.399 71.9773C58.9975 71.9773 59.4899 71.8239 59.8763 71.517C60.2626 71.2102 60.5486 70.8068 60.7342 70.3068C60.9198 69.8068 61.0126 69.2652 61.0126 68.6818C61.0126 68.0985 60.9198 67.5549 60.7342 67.0511C60.5486 66.5473 60.2626 66.1402 59.8763 65.8295C59.4899 65.5189 58.9975 65.3636 58.399 65.3636C57.8005 65.3636 57.3081 65.5189 56.9217 65.8295C56.5353 66.1402 56.2494 66.5473 56.0638 67.0511C55.8781 67.5549 55.7853 68.0985 55.7853 68.6818C55.7853 69.2652 55.8781 69.8068 56.0638 70.3068C56.2494 70.8068 56.5353 71.2102 56.9217 71.517C57.3081 71.8239 57.8005 71.9773 58.399 71.9773ZM63.1756 73L66.721 68.5682L63.221 64.2727H64.8119L67.721 68H68.4483V64.2727H69.7892V68H70.4938L73.4028 64.2727H74.9938L71.5165 68.5682L75.0392 73H73.4256L70.471 69.25H69.7892V73H68.4483V69.25H67.7665L64.7892 73H63.1756ZM79.9351 73.1818C79.0942 73.1818 78.3688 72.9962 77.759 72.625C77.1529 72.25 76.6851 71.7273 76.3556 71.0568C76.0298 70.3826 75.8669 69.5985 75.8669 68.7045C75.8669 67.8106 76.0298 67.0227 76.3556 66.3409C76.6851 65.6553 77.1434 65.1212 77.7306 64.7386C78.3215 64.3523 79.0109 64.1591 79.7988 64.1591C80.2533 64.1591 80.7022 64.2348 81.1453 64.3864C81.5885 64.5379 81.9919 64.7841 82.3556 65.125C82.7192 65.4621 83.009 65.9091 83.2249 66.4659C83.4408 67.0227 83.5488 67.7083 83.5488 68.5227V69.0909H76.8215V67.9318H82.1851C82.1851 67.4394 82.0866 67 81.8897 66.6136C81.6965 66.2273 81.42 65.9223 81.0601 65.6989C80.7041 65.4754 80.2836 65.3636 79.7988 65.3636C79.2647 65.3636 78.8025 65.4962 78.4124 65.7614C78.026 66.0227 77.7287 66.3636 77.5203 66.7841C77.312 67.2045 77.2078 67.6553 77.2078 68.1364V68.9091C77.2078 69.5682 77.3215 70.1269 77.5488 70.5852C77.7798 71.0398 78.0999 71.3864 78.509 71.625C78.9181 71.8598 79.3934 71.9773 79.9351 71.9773C80.2874 71.9773 80.6056 71.928 80.8897 71.8295C81.1775 71.7273 81.4256 71.5758 81.634 71.375C81.8423 71.1705 82.0033 70.9167 82.1169 70.6136L83.4124 70.9773C83.276 71.4167 83.0469 71.803 82.7249 72.1364C82.4029 72.4659 82.0052 72.7235 81.5317 72.9091C81.0582 73.0909 80.526 73.1818 79.9351 73.1818ZM84.456 65.5227V64.2727H91.5469V65.5227H88.6833V73H87.3424V65.5227H84.456ZM96.3889 73.1818C95.548 73.1818 94.8226 72.9962 94.2127 72.625C93.6067 72.25 93.1389 71.7273 92.8093 71.0568C92.4836 70.3826 92.3207 69.5985 92.3207 68.7045C92.3207 67.8106 92.4836 67.0227 92.8093 66.3409C93.1389 65.6553 93.5972 65.1212 94.1843 64.7386C94.7752 64.3523 95.4646 64.1591 96.2525 64.1591C96.707 64.1591 97.1559 64.2348 97.5991 64.3864C98.0423 64.5379 98.4457 64.7841 98.8093 65.125C99.173 65.4621 99.4627 65.9091 99.6786 66.4659C99.8945 67.0227 100.003 67.7083 100.003 68.5227V69.0909H93.2752V67.9318H98.6389C98.6389 67.4394 98.5404 67 98.3434 66.6136C98.1502 66.2273 97.8737 65.9223 97.5139 65.6989C97.1578 65.4754 96.7374 65.3636 96.2525 65.3636C95.7184 65.3636 95.2563 65.4962 94.8661 65.7614C94.4798 66.0227 94.1824 66.3636 93.9741 66.7841C93.7658 67.2045 93.6616 67.6553 93.6616 68.1364V68.9091C93.6616 69.5682 93.7752 70.1269 94.0025 70.5852C94.2336 71.0398 94.5536 71.3864 94.9627 71.625C95.3718 71.8598 95.8472 71.9773 96.3889 71.9773C96.7411 71.9773 97.0593 71.928 97.3434 71.8295C97.6313 71.7273 97.8794 71.5758 98.0877 71.375C98.2961 71.1705 98.457 70.9167 98.5707 70.6136L99.8661 70.9773C99.7298 71.4167 99.5006 71.803 99.1786 72.1364C98.8567 72.4659 98.4589 72.7235 97.9855 72.9091C97.512 73.0909 96.9798 73.1818 96.3889 73.1818ZM109.448 73.1818C108.66 73.1818 107.969 72.9943 107.374 72.6193C106.783 72.2443 106.321 71.7197 105.988 71.0455C105.658 70.3712 105.493 69.5833 105.493 68.6818C105.493 67.7727 105.658 66.9792 105.988 66.3011C106.321 65.6231 106.783 65.0966 107.374 64.7216C107.969 64.3466 108.66 64.1591 109.448 64.1591C110.236 64.1591 110.925 64.3466 111.516 64.7216C112.111 65.0966 112.573 65.6231 112.902 66.3011C113.236 66.9792 113.402 67.7727 113.402 68.6818C113.402 69.5833 113.236 70.3712 112.902 71.0455C112.573 71.7197 112.111 72.2443 111.516 72.6193C110.925 72.9943 110.236 73.1818 109.448 73.1818ZM109.448 71.9773C110.046 71.9773 110.539 71.8239 110.925 71.517C111.311 71.2102 111.597 70.8068 111.783 70.3068C111.969 69.8068 112.061 69.2652 112.061 68.6818C112.061 68.0985 111.969 67.5549 111.783 67.0511C111.597 66.5473 111.311 66.1402 110.925 65.8295C110.539 65.5189 110.046 65.3636 109.448 65.3636C108.849 65.3636 108.357 65.5189 107.97 65.8295C107.584 66.1402 107.298 66.5473 107.113 67.0511C106.927 67.5549 106.834 68.0985 106.834 68.6818C106.834 69.2652 106.927 69.8068 107.113 70.3068C107.298 70.8068 107.584 71.2102 107.97 71.517C108.357 71.8239 108.849 71.9773 109.448 71.9773ZM118.675 73.1818C117.856 73.1818 117.152 72.9886 116.561 72.6023C115.97 72.2159 115.516 71.6837 115.197 71.0057C114.879 70.3277 114.72 69.553 114.72 68.6818C114.72 67.7955 114.883 67.0133 115.209 66.3352C115.538 65.6534 115.997 65.1212 116.584 64.7386C117.175 64.3523 117.864 64.1591 118.652 64.1591C119.266 64.1591 119.819 64.2727 120.311 64.5C120.803 64.7273 121.207 65.0455 121.521 65.4545C121.836 65.8636 122.031 66.3409 122.106 66.8864H120.766C120.663 66.4886 120.436 66.1364 120.084 65.8295C119.735 65.5189 119.266 65.3636 118.675 65.3636C118.152 65.3636 117.694 65.5 117.3 65.7727C116.909 66.0417 116.605 66.4223 116.385 66.9148C116.169 67.4034 116.061 67.9773 116.061 68.6364C116.061 69.3106 116.167 69.8977 116.379 70.3977C116.595 70.8977 116.898 71.286 117.288 71.5625C117.682 71.839 118.144 71.9773 118.675 71.9773C119.023 71.9773 119.339 71.9167 119.623 71.7955C119.908 71.6742 120.148 71.5 120.345 71.2727C120.542 71.0455 120.682 70.7727 120.766 70.4545H122.106C122.031 70.9697 121.843 71.4337 121.544 71.8466C121.248 72.2557 120.856 72.5814 120.368 72.8239C119.883 73.0625 119.319 73.1818 118.675 73.1818ZM123.059 65.5227V64.2727H130.15V65.5227H127.286V73H125.946V65.5227H123.059ZM133.901 73.2045C133.348 73.2045 132.846 73.1004 132.395 72.892C131.945 72.6799 131.587 72.375 131.322 71.9773C131.056 71.5758 130.924 71.0909 130.924 70.5227C130.924 70.0227 131.022 69.6174 131.219 69.3068C131.416 68.9924 131.679 68.7462 132.009 68.5682C132.339 68.3902 132.702 68.2576 133.1 68.1705C133.501 68.0795 133.905 68.0076 134.31 67.9545C134.84 67.8864 135.27 67.8352 135.6 67.8011C135.933 67.7633 136.176 67.7008 136.327 67.6136C136.483 67.5265 136.56 67.375 136.56 67.1591V67.1136C136.56 66.553 136.407 66.1174 136.1 65.8068C135.797 65.4962 135.337 65.3409 134.719 65.3409C134.079 65.3409 133.577 65.4811 133.214 65.7614C132.85 66.0417 132.594 66.3409 132.447 66.6591L131.174 66.2045C131.401 65.6742 131.704 65.2614 132.083 64.9659C132.465 64.6667 132.882 64.4583 133.333 64.3409C133.787 64.2197 134.234 64.1591 134.674 64.1591C134.954 64.1591 135.276 64.1932 135.64 64.2614C136.007 64.3258 136.361 64.4602 136.702 64.6648C137.047 64.8693 137.333 65.178 137.56 65.5909C137.787 66.0038 137.901 66.5568 137.901 67.25V73H136.56V71.8182H136.492C136.401 72.0076 136.25 72.2102 136.037 72.4261C135.825 72.642 135.543 72.8258 135.191 72.9773C134.839 73.1288 134.409 73.2045 133.901 73.2045ZM134.106 72C134.636 72 135.083 71.8958 135.447 71.6875C135.814 71.4792 136.09 71.2102 136.276 70.8807C136.465 70.5511 136.56 70.2045 136.56 69.8409V68.6136C136.503 68.6818 136.378 68.7443 136.185 68.8011C135.996 68.8542 135.776 68.9015 135.526 68.9432C135.28 68.9811 135.039 69.0152 134.804 69.0455C134.573 69.072 134.386 69.0947 134.242 69.1136C133.894 69.1591 133.568 69.233 133.265 69.3352C132.965 69.4337 132.723 69.5833 132.537 69.7841C132.356 69.9811 132.265 70.25 132.265 70.5909C132.265 71.0568 132.437 71.4091 132.782 71.6477C133.13 71.8826 133.572 72 134.106 72ZM140.029 73V64.2727H143.597C144.536 64.2727 145.282 64.4848 145.835 64.9091C146.388 65.3333 146.665 65.8939 146.665 66.5909C146.665 67.1212 146.508 67.5322 146.193 67.8239C145.879 68.1117 145.475 68.3068 144.983 68.4091C145.305 68.4545 145.618 68.5682 145.921 68.75C146.227 68.9318 146.481 69.1818 146.682 69.5C146.883 69.8144 146.983 70.2008 146.983 70.6591C146.983 71.1061 146.869 71.5057 146.642 71.858C146.415 72.2102 146.089 72.4886 145.665 72.6932C145.241 72.8977 144.733 73 144.142 73H140.029ZM141.301 71.7727H144.142C144.604 71.7727 144.966 71.6629 145.227 71.4432C145.489 71.2235 145.619 70.9242 145.619 70.5455C145.619 70.0947 145.489 69.7405 145.227 69.483C144.966 69.2216 144.604 69.0909 144.142 69.0909H141.301V71.7727ZM141.301 67.9318H143.597C143.957 67.9318 144.265 67.8826 144.523 67.7841C144.78 67.6818 144.977 67.5379 145.114 67.3523C145.254 67.1629 145.324 66.9394 145.324 66.6818C145.324 66.3144 145.171 66.0265 144.864 65.8182C144.557 65.6061 144.135 65.5 143.597 65.5H141.301V67.9318ZM150.034 71.0227L154.238 64.2727H155.784V73H154.443V66.25L150.261 73H148.693V64.2727H150.034V71.0227ZM156.732 65.5227V64.2727H163.823V65.5227H160.96V73H159.619V65.5227H156.732ZM166.618 67.4318H169.118C170.141 67.4318 170.923 67.6913 171.465 68.2102C172.006 68.7292 172.277 69.3864 172.277 70.1818C172.277 70.7045 172.156 71.1799 171.914 71.608C171.671 72.0322 171.315 72.3712 170.846 72.625C170.376 72.875 169.8 73 169.118 73H165.459V64.2727H166.8V71.75H169.118C169.649 71.75 170.084 71.6098 170.425 71.3295C170.766 71.0492 170.936 70.6894 170.936 70.25C170.936 69.7879 170.766 69.411 170.425 69.1193C170.084 68.8277 169.649 68.6818 169.118 68.6818H166.618V67.4318ZM181.724 73.1818C180.906 73.1818 180.201 72.9886 179.61 72.6023C179.019 72.2159 178.565 71.6837 178.247 71.0057C177.929 70.3277 177.769 69.553 177.769 68.6818C177.769 67.7955 177.932 67.0133 178.258 66.3352C178.588 65.6534 179.046 65.1212 179.633 64.7386C180.224 64.3523 180.913 64.1591 181.701 64.1591C182.315 64.1591 182.868 64.2727 183.36 64.5C183.853 64.7273 184.256 65.0455 184.571 65.4545C184.885 65.8636 185.08 66.3409 185.156 66.8864H183.815C183.713 66.4886 183.485 66.1364 183.133 65.8295C182.785 65.5189 182.315 65.3636 181.724 65.3636C181.201 65.3636 180.743 65.5 180.349 65.7727C179.959 66.0417 179.654 66.4223 179.434 66.9148C179.218 67.4034 179.11 67.9773 179.11 68.6364C179.11 69.3106 179.216 69.8977 179.429 70.3977C179.644 70.8977 179.947 71.286 180.338 71.5625C180.732 71.839 181.194 71.9773 181.724 71.9773C182.072 71.9773 182.389 71.9167 182.673 71.7955C182.957 71.6742 183.197 71.5 183.394 71.2727C183.591 71.0455 183.732 70.7727 183.815 70.4545H185.156C185.08 70.9697 184.893 71.4337 184.593 71.8466C184.298 72.2557 183.906 72.5814 183.417 72.8239C182.932 73.0625 182.368 73.1818 181.724 73.1818ZM186.796 73V64.2727H190.364C191.304 64.2727 192.05 64.4848 192.603 64.9091C193.156 65.3333 193.432 65.8939 193.432 66.5909C193.432 67.1212 193.275 67.5322 192.961 67.8239C192.646 68.1117 192.243 68.3068 191.751 68.4091C192.073 68.4545 192.385 68.5682 192.688 68.75C192.995 68.9318 193.249 69.1818 193.449 69.5C193.65 69.8144 193.751 70.2008 193.751 70.6591C193.751 71.1061 193.637 71.5057 193.41 71.858C193.182 72.2102 192.857 72.4886 192.432 72.6932C192.008 72.8977 191.501 73 190.91 73H186.796ZM188.069 71.7727H190.91C191.372 71.7727 191.734 71.6629 191.995 71.4432C192.256 71.2235 192.387 70.9242 192.387 70.5455C192.387 70.0947 192.256 69.7405 191.995 69.483C191.734 69.2216 191.372 69.0909 190.91 69.0909H188.069V71.7727ZM188.069 67.9318H190.364C190.724 67.9318 191.033 67.8826 191.29 67.7841C191.548 67.6818 191.745 67.5379 191.881 67.3523C192.021 67.1629 192.091 66.9394 192.091 66.6818C192.091 66.3144 191.938 66.0265 191.631 65.8182C191.324 65.6061 190.902 65.5 190.364 65.5H188.069V67.9318ZM199.006 73.1818C198.218 73.1818 197.527 72.9943 196.932 72.6193C196.341 72.2443 195.879 71.7197 195.546 71.0455C195.216 70.3712 195.051 69.5833 195.051 68.6818C195.051 67.7727 195.216 66.9792 195.546 66.3011C195.879 65.6231 196.341 65.0966 196.932 64.7216C197.527 64.3466 198.218 64.1591 199.006 64.1591C199.794 64.1591 200.483 64.3466 201.074 64.7216C201.669 65.0966 202.131 65.6231 202.46 66.3011C202.794 66.9792 202.96 67.7727 202.96 68.6818C202.96 69.5833 202.794 70.3712 202.46 71.0455C202.131 71.7197 201.669 72.2443 201.074 72.6193C200.483 72.9943 199.794 73.1818 199.006 73.1818ZM199.006 71.9773C199.604 71.9773 200.097 71.8239 200.483 71.517C200.869 71.2102 201.155 70.8068 201.341 70.3068C201.527 69.8068 201.619 69.2652 201.619 68.6818C201.619 68.0985 201.527 67.5549 201.341 67.0511C201.155 66.5473 200.869 66.1402 200.483 65.8295C200.097 65.5189 199.604 65.3636 199.006 65.3636C198.407 65.3636 197.915 65.5189 197.529 65.8295C197.142 66.1402 196.856 66.5473 196.671 67.0511C196.485 67.5549 196.392 68.0985 196.392 68.6818C196.392 69.2652 196.485 69.8068 196.671 70.3068C196.856 70.8068 197.142 71.2102 197.529 71.517C197.915 71.8239 198.407 71.9773 199.006 71.9773ZM206.028 71.0227L210.233 64.2727H211.778V73H210.437V66.25L206.255 73H204.687V64.2727H206.028V71.0227ZM209.346 61.3636H210.596C210.596 61.9773 210.384 62.4792 209.96 62.8693C209.536 63.2595 208.96 63.4545 208.233 63.4545C207.517 63.4545 206.947 63.2595 206.523 62.8693C206.102 62.4792 205.892 61.9773 205.892 61.3636H207.142C207.142 61.6591 207.223 61.9186 207.386 62.142C207.553 62.3655 207.835 62.4773 208.233 62.4773C208.63 62.4773 208.915 62.3655 209.085 62.142C209.259 61.9186 209.346 61.6591 209.346 61.3636ZM218.094 73V64.2727H221.662C222.602 64.2727 223.348 64.4848 223.901 64.9091C224.454 65.3333 224.731 65.8939 224.731 66.5909C224.731 67.1212 224.573 67.5322 224.259 67.8239C223.945 68.1117 223.541 68.3068 223.049 68.4091C223.371 68.4545 223.683 68.5682 223.986 68.75C224.293 68.9318 224.547 69.1818 224.748 69.5C224.948 69.8144 225.049 70.2008 225.049 70.6591C225.049 71.1061 224.935 71.5057 224.708 71.858C224.481 72.2102 224.155 72.4886 223.731 72.6932C223.306 72.8977 222.799 73 222.208 73H218.094ZM219.367 71.7727H222.208C222.67 71.7727 223.032 71.6629 223.293 71.4432C223.554 71.2235 223.685 70.9242 223.685 70.5455C223.685 70.0947 223.554 69.7405 223.293 69.483C223.032 69.2216 222.67 69.0909 222.208 69.0909H219.367V71.7727ZM219.367 67.9318H221.662C222.022 67.9318 222.331 67.8826 222.588 67.7841C222.846 67.6818 223.043 67.5379 223.179 67.3523C223.32 67.1629 223.39 66.9394 223.39 66.6818C223.39 66.3144 223.236 66.0265 222.929 65.8182C222.623 65.6061 222.2 65.5 221.662 65.5H219.367V67.9318ZM230.304 73.1818C229.516 73.1818 228.825 72.9943 228.23 72.6193C227.639 72.2443 227.177 71.7197 226.844 71.0455C226.514 70.3712 226.349 69.5833 226.349 68.6818C226.349 67.7727 226.514 66.9792 226.844 66.3011C227.177 65.6231 227.639 65.0966 228.23 64.7216C228.825 64.3466 229.516 64.1591 230.304 64.1591C231.092 64.1591 231.781 64.3466 232.372 64.7216C232.967 65.0966 233.429 65.6231 233.759 66.3011C234.092 66.9792 234.259 67.7727 234.259 68.6818C234.259 69.5833 234.092 70.3712 233.759 71.0455C233.429 71.7197 232.967 72.2443 232.372 72.6193C231.781 72.9943 231.092 73.1818 230.304 73.1818ZM230.304 71.9773C230.902 71.9773 231.395 71.8239 231.781 71.517C232.168 71.2102 232.454 70.8068 232.639 70.3068C232.825 69.8068 232.918 69.2652 232.918 68.6818C232.918 68.0985 232.825 67.5549 232.639 67.0511C232.454 66.5473 232.168 66.1402 231.781 65.8295C231.395 65.5189 230.902 65.3636 230.304 65.3636C229.705 65.3636 229.213 65.5189 228.827 65.8295C228.44 66.1402 228.154 66.5473 227.969 67.0511C227.783 67.5549 227.69 68.0985 227.69 68.6818C227.69 69.2652 227.783 69.8068 227.969 70.3068C228.154 70.8068 228.44 71.2102 228.827 71.517C229.213 71.8239 229.705 71.9773 230.304 71.9773ZM235.985 73V64.2727H242.849V73H241.508V65.5227H237.326V73H235.985ZM244.978 76.2727V64.2727H246.273V65.6591H246.432C246.531 65.5076 246.667 65.3144 246.842 65.0795C247.02 64.8409 247.273 64.6288 247.603 64.4432C247.936 64.2538 248.387 64.1591 248.955 64.1591C249.69 64.1591 250.338 64.3428 250.898 64.7102C251.459 65.0777 251.896 65.5985 252.211 66.2727C252.525 66.947 252.682 67.7424 252.682 68.6591C252.682 69.5833 252.525 70.3845 252.211 71.0625C251.896 71.7367 251.461 72.2595 250.904 72.6307C250.347 72.9981 249.705 73.1818 248.978 73.1818C248.417 73.1818 247.968 73.089 247.631 72.9034C247.294 72.714 247.035 72.5 246.853 72.2614C246.671 72.0189 246.531 71.8182 246.432 71.6591H246.319V76.2727H244.978ZM246.296 68.6364C246.296 69.2955 246.393 69.8769 246.586 70.3807C246.779 70.8807 247.061 71.2727 247.432 71.5568C247.804 71.8371 248.258 71.9773 248.796 71.9773C249.357 71.9773 249.824 71.8295 250.199 71.5341C250.578 71.2348 250.862 70.8333 251.052 70.3295C251.245 69.822 251.342 69.2576 251.342 68.6364C251.342 68.0227 251.247 67.4697 251.057 66.9773C250.872 66.4811 250.59 66.089 250.211 65.8011C249.836 65.5095 249.364 65.3636 248.796 65.3636C248.251 65.3636 247.792 65.5019 247.421 65.7784C247.05 66.0511 246.77 66.4337 246.58 66.9261C246.391 67.4148 246.296 67.9848 246.296 68.6364ZM257.953 73.1818C257.165 73.1818 256.474 72.9943 255.879 72.6193C255.289 72.2443 254.826 71.7197 254.493 71.0455C254.164 70.3712 253.999 69.5833 253.999 68.6818C253.999 67.7727 254.164 66.9792 254.493 66.3011C254.826 65.6231 255.289 65.0966 255.879 64.7216C256.474 64.3466 257.165 64.1591 257.953 64.1591C258.741 64.1591 259.431 64.3466 260.022 64.7216C260.616 65.0966 261.078 65.6231 261.408 66.3011C261.741 66.9792 261.908 67.7727 261.908 68.6818C261.908 69.5833 261.741 70.3712 261.408 71.0455C261.078 71.7197 260.616 72.2443 260.022 72.6193C259.431 72.9943 258.741 73.1818 257.953 73.1818ZM257.953 71.9773C258.552 71.9773 259.044 71.8239 259.431 71.517C259.817 71.2102 260.103 70.8068 260.289 70.3068C260.474 69.8068 260.567 69.2652 260.567 68.6818C260.567 68.0985 260.474 67.5549 260.289 67.0511C260.103 66.5473 259.817 66.1402 259.431 65.8295C259.044 65.5189 258.552 65.3636 257.953 65.3636C257.355 65.3636 256.862 65.5189 256.476 65.8295C256.09 66.1402 255.804 66.5473 255.618 67.0511C255.433 67.5549 255.34 68.0985 255.34 68.6818C255.34 69.2652 255.433 69.8068 255.618 70.3068C255.804 70.8068 256.09 71.2102 256.476 71.517C256.862 71.8239 257.355 71.9773 257.953 71.9773ZM267.18 73.1818C266.362 73.1818 265.658 72.9886 265.067 72.6023C264.476 72.2159 264.021 71.6837 263.703 71.0057C263.385 70.3277 263.226 69.553 263.226 68.6818C263.226 67.7955 263.389 67.0133 263.714 66.3352C264.044 65.6534 264.502 65.1212 265.089 64.7386C265.68 64.3523 266.37 64.1591 267.158 64.1591C267.771 64.1591 268.324 64.2727 268.817 64.5C269.309 64.7273 269.712 65.0455 270.027 65.4545C270.341 65.8636 270.536 66.3409 270.612 66.8864H269.271C269.169 66.4886 268.942 66.1364 268.589 65.8295C268.241 65.5189 267.771 65.3636 267.18 65.3636C266.658 65.3636 266.199 65.5 265.805 65.7727C265.415 66.0417 265.11 66.4223 264.89 66.9148C264.675 67.4034 264.567 67.9773 264.567 68.6364C264.567 69.3106 264.673 69.8977 264.885 70.3977C265.101 70.8977 265.404 71.286 265.794 71.5625C266.188 71.839 266.65 71.9773 267.18 71.9773C267.529 71.9773 267.845 71.9167 268.129 71.7955C268.413 71.6742 268.654 71.5 268.851 71.2727C269.048 71.0455 269.188 70.7727 269.271 70.4545H270.612C270.536 70.9697 270.349 71.4337 270.05 71.8466C269.754 72.2557 269.362 72.5814 268.873 72.8239C268.389 73.0625 267.824 73.1818 267.18 73.1818ZM275.887 70.7727H277.319C277.349 71.1667 277.527 71.4659 277.853 71.6705C278.182 71.875 278.61 71.9773 279.137 71.9773C279.675 71.9773 280.135 71.8674 280.517 71.6477C280.9 71.4242 281.091 71.0644 281.091 70.5682C281.091 70.2765 281.019 70.0227 280.875 69.8068C280.732 69.5871 280.529 69.4167 280.267 69.2955C280.006 69.1742 279.697 69.1136 279.341 69.1136H277.841V67.9091H279.341C279.875 67.9091 280.269 67.7879 280.523 67.5455C280.781 67.303 280.91 67 280.91 66.6364C280.91 66.2462 280.771 65.9337 280.495 65.6989C280.218 65.4602 279.826 65.3409 279.319 65.3409C278.807 65.3409 278.381 65.4564 278.04 65.6875C277.699 65.9148 277.519 66.2083 277.5 66.5682H276.091C276.107 66.0985 276.25 65.6837 276.523 65.3239C276.796 64.9602 277.167 64.6761 277.637 64.4716C278.107 64.2633 278.644 64.1591 279.25 64.1591C279.864 64.1591 280.396 64.267 280.847 64.483C281.302 64.6951 281.652 64.9848 281.898 65.3523C282.148 65.7159 282.273 66.1288 282.273 66.5909C282.273 67.0833 282.135 67.4811 281.858 67.7841C281.582 68.0871 281.235 68.303 280.819 68.4318V68.5227C281.148 68.5455 281.434 68.6515 281.677 68.8409C281.923 69.0265 282.114 69.2708 282.25 69.5739C282.387 69.8731 282.455 70.2045 282.455 70.5682C282.455 71.0985 282.313 71.5606 282.029 71.9545C281.745 72.3447 281.355 72.6477 280.858 72.8636C280.362 73.0758 279.796 73.1818 279.16 73.1818C278.542 73.1818 277.989 73.0814 277.5 72.8807C277.012 72.6761 276.624 72.3939 276.336 72.0341C276.052 71.6705 275.902 71.25 275.887 70.7727ZM283.087 75.5V71.75H283.814C283.992 71.5644 284.145 71.3636 284.274 71.1477C284.403 70.9318 284.515 70.6761 284.609 70.3807C284.708 70.0814 284.791 69.7178 284.859 69.2898C284.928 68.858 284.988 68.3371 285.041 67.7273L285.337 64.2727H290.882V71.75H292.223V75.5H290.882V73H284.428V75.5H283.087ZM285.337 71.75H289.541V65.5227H286.587L286.359 67.7273C286.265 68.6402 286.147 69.4375 286.007 70.1193C285.867 70.8011 285.644 71.3447 285.337 71.75ZM297.342 73.1818C296.501 73.1818 295.776 72.9962 295.166 72.625C294.56 72.25 294.092 71.7273 293.762 71.0568C293.437 70.3826 293.274 69.5985 293.274 68.7045C293.274 67.8106 293.437 67.0227 293.762 66.3409C294.092 65.6553 294.55 65.1212 295.137 64.7386C295.728 64.3523 296.418 64.1591 297.206 64.1591C297.66 64.1591 298.109 64.2348 298.552 64.3864C298.995 64.5379 299.399 64.7841 299.762 65.125C300.126 65.4621 300.416 65.9091 300.632 66.4659C300.848 67.0227 300.956 67.7083 300.956 68.5227V69.0909H294.228V67.9318H299.592C299.592 67.4394 299.494 67 299.297 66.6136C299.103 66.2273 298.827 65.9223 298.467 65.6989C298.111 65.4754 297.69 65.3636 297.206 65.3636C296.672 65.3636 296.209 65.4962 295.819 65.7614C295.433 66.0227 295.136 66.3636 294.927 66.7841C294.719 67.2045 294.615 67.6553 294.615 68.1364V68.9091C294.615 69.5682 294.728 70.1269 294.956 70.5852C295.187 71.0398 295.507 71.3864 295.916 71.625C296.325 71.8598 296.8 71.9773 297.342 71.9773C297.694 71.9773 298.012 71.928 298.297 71.8295C298.584 71.7273 298.833 71.5758 299.041 71.375C299.249 71.1705 299.41 70.9167 299.524 70.6136L300.819 70.9773C300.683 71.4167 300.454 71.803 300.132 72.1364C299.81 72.4659 299.412 72.7235 298.939 72.9091C298.465 73.0909 297.933 73.1818 297.342 73.1818ZM306.221 73.1818C305.403 73.1818 304.698 72.9886 304.107 72.6023C303.516 72.2159 303.062 71.6837 302.744 71.0057C302.425 70.3277 302.266 69.553 302.266 68.6818C302.266 67.7955 302.429 67.0133 302.755 66.3352C303.084 65.6534 303.543 65.1212 304.13 64.7386C304.721 64.3523 305.41 64.1591 306.198 64.1591C306.812 64.1591 307.365 64.2727 307.857 64.5C308.35 64.7273 308.753 65.0455 309.067 65.4545C309.382 65.8636 309.577 66.3409 309.653 66.8864H308.312C308.209 66.4886 307.982 66.1364 307.63 65.8295C307.281 65.5189 306.812 65.3636 306.221 65.3636C305.698 65.3636 305.24 65.5 304.846 65.7727C304.456 66.0417 304.151 66.4223 303.931 66.9148C303.715 67.4034 303.607 67.9773 303.607 68.6364C303.607 69.3106 303.713 69.8977 303.925 70.3977C304.141 70.8977 304.444 71.286 304.834 71.5625C305.228 71.839 305.691 71.9773 306.221 71.9773C306.569 71.9773 306.886 71.9167 307.17 71.7955C307.454 71.6742 307.694 71.5 307.891 71.2727C308.088 71.0455 308.228 70.7727 308.312 70.4545H309.653C309.577 70.9697 309.389 71.4337 309.09 71.8466C308.795 72.2557 308.403 72.5814 307.914 72.8239C307.429 73.0625 306.865 73.1818 306.221 73.1818ZM312.452 67.4318H314.952C315.975 67.4318 316.757 67.6913 317.299 68.2102C317.84 68.7292 318.111 69.3864 318.111 70.1818C318.111 70.7045 317.99 71.1799 317.747 71.608C317.505 72.0322 317.149 72.3712 316.679 72.625C316.21 72.875 315.634 73 314.952 73H311.293V64.2727H312.634V71.75H314.952C315.482 71.75 315.918 71.6098 316.259 71.3295C316.6 71.0492 316.77 70.6894 316.77 70.25C316.77 69.7879 316.6 69.411 316.259 69.1193C315.918 68.8277 315.482 68.6818 314.952 68.6818H312.452V67.4318ZM325.353 71.0227L329.558 64.2727H331.103V73H329.762V66.25L325.58 73H324.012V64.2727H325.353V71.0227ZM337.419 73V64.2727H344.283V73H342.942V65.5227H338.76V73H337.419ZM349.957 73.1818C349.169 73.1818 348.478 72.9943 347.883 72.6193C347.292 72.2443 346.83 71.7197 346.497 71.0455C346.167 70.3712 346.003 69.5833 346.003 68.6818C346.003 67.7727 346.167 66.9792 346.497 66.3011C346.83 65.6231 347.292 65.0966 347.883 64.7216C348.478 64.3466 349.169 64.1591 349.957 64.1591C350.745 64.1591 351.434 64.3466 352.025 64.7216C352.62 65.0966 353.082 65.6231 353.412 66.3011C353.745 66.9792 353.912 67.7727 353.912 68.6818C353.912 69.5833 353.745 70.3712 353.412 71.0455C353.082 71.7197 352.62 72.2443 352.025 72.6193C351.434 72.9943 350.745 73.1818 349.957 73.1818ZM349.957 71.9773C350.556 71.9773 351.048 71.8239 351.434 71.517C351.821 71.2102 352.107 70.8068 352.292 70.3068C352.478 69.8068 352.571 69.2652 352.571 68.6818C352.571 68.0985 352.478 67.5549 352.292 67.0511C352.107 66.5473 351.821 66.1402 351.434 65.8295C351.048 65.5189 350.556 65.3636 349.957 65.3636C349.359 65.3636 348.866 65.5189 348.48 65.8295C348.093 66.1402 347.807 66.5473 347.622 67.0511C347.436 67.5549 347.343 68.0985 347.343 68.6818C347.343 69.2652 347.436 69.8068 347.622 70.3068C347.807 70.8068 348.093 71.2102 348.48 71.517C348.866 71.8239 349.359 71.9773 349.957 71.9773ZM354.866 73V71.75H355.184C355.445 71.75 355.663 71.6989 355.837 71.5966C356.012 71.4905 356.152 71.3068 356.258 71.0455C356.368 70.7803 356.451 70.4129 356.508 69.9432C356.568 69.4697 356.612 68.8674 356.639 68.1364L356.798 64.2727H362.616V73H361.275V65.5227H358.07L357.934 68.6364C357.904 69.3523 357.839 69.983 357.741 70.5284C357.646 71.0701 357.5 71.5246 357.303 71.892C357.11 72.2595 356.853 72.536 356.531 72.7216C356.209 72.9072 355.805 73 355.32 73H354.866ZM365.307 76.2727C365.08 76.2727 364.877 76.2538 364.699 76.2159C364.521 76.1818 364.398 76.1477 364.33 76.1136L364.671 74.9318C364.997 75.0152 365.284 75.0455 365.534 75.0227C365.784 75 366.006 74.8883 366.199 74.6875C366.396 74.4905 366.576 74.1705 366.739 73.7273L366.989 73.0455L363.762 64.2727H365.216L367.625 71.2273H367.716L370.125 64.2727H371.58L367.875 74.2727C367.709 74.7235 367.502 75.0966 367.256 75.392C367.01 75.6913 366.724 75.9129 366.398 76.0568C366.076 76.2008 365.712 76.2727 365.307 76.2727ZM379.491 64.2727V73H378.151V64.2727H379.491ZM378.969 68.4318V69.6818C378.666 69.7955 378.365 69.8958 378.065 69.983C377.766 70.0663 377.452 70.1326 377.122 70.1818C376.793 70.2273 376.431 70.25 376.037 70.25C375.048 70.25 374.255 69.983 373.656 69.4489C373.061 68.9148 372.764 68.1136 372.764 67.0455V64.25H374.105V67.0455C374.105 67.4924 374.19 67.8598 374.361 68.1477C374.531 68.4356 374.762 68.6496 375.054 68.7898C375.346 68.9299 375.673 69 376.037 69C376.605 69 377.118 68.9489 377.577 68.8466C378.039 68.7405 378.503 68.6023 378.969 68.4318ZM382.973 71.0227L387.177 64.2727H388.723V73H387.382V66.25L383.2 73H381.632V64.2727H382.973V71.0227ZM389.671 65.5227V64.2727H396.762V65.5227H393.898V73H392.557V65.5227H389.671ZM399.557 67.4318H402.057C403.08 67.4318 403.862 67.6913 404.404 68.2102C404.945 68.7292 405.216 69.3864 405.216 70.1818C405.216 70.7045 405.095 71.1799 404.852 71.608C404.61 72.0322 404.254 72.3712 403.784 72.625C403.315 72.875 402.739 73 402.057 73H398.398V64.2727H399.739V71.75H402.057C402.587 71.75 403.023 71.6098 403.364 71.3295C403.705 71.0492 403.875 70.6894 403.875 70.25C403.875 69.7879 403.705 69.411 403.364 69.1193C403.023 68.8277 402.587 68.6818 402.057 68.6818H399.557V67.4318ZM414.663 73.1818C413.875 73.1818 413.184 72.9943 412.589 72.6193C411.998 72.2443 411.536 71.7197 411.203 71.0455C410.873 70.3712 410.708 69.5833 410.708 68.6818C410.708 67.7727 410.873 66.9792 411.203 66.3011C411.536 65.6231 411.998 65.0966 412.589 64.7216C413.184 64.3466 413.875 64.1591 414.663 64.1591C415.451 64.1591 416.14 64.3466 416.731 64.7216C417.326 65.0966 417.788 65.6231 418.117 66.3011C418.451 66.9792 418.617 67.7727 418.617 68.6818C418.617 69.5833 418.451 70.3712 418.117 71.0455C417.788 71.7197 417.326 72.2443 416.731 72.6193C416.14 72.9943 415.451 73.1818 414.663 73.1818ZM414.663 71.9773C415.261 71.9773 415.754 71.8239 416.14 71.517C416.526 71.2102 416.812 70.8068 416.998 70.3068C417.184 69.8068 417.276 69.2652 417.276 68.6818C417.276 68.0985 417.184 67.5549 416.998 67.0511C416.812 66.5473 416.526 66.1402 416.14 65.8295C415.754 65.5189 415.261 65.3636 414.663 65.3636C414.064 65.3636 413.572 65.5189 413.185 65.8295C412.799 66.1402 412.513 66.5473 412.328 67.0511C412.142 67.5549 412.049 68.0985 412.049 68.6818C412.049 69.2652 412.142 69.8068 412.328 70.3068C412.513 70.8068 412.799 71.2102 413.185 71.517C413.572 71.8239 414.064 71.9773 414.663 71.9773ZM419.204 65.5227V64.2727H426.294V65.5227H423.431V73H422.09V65.5227H419.204ZM427.93 73V64.2727H431.499C432.438 64.2727 433.184 64.4848 433.737 64.9091C434.29 65.3333 434.567 65.8939 434.567 66.5909C434.567 67.1212 434.41 67.5322 434.095 67.8239C433.781 68.1117 433.377 68.3068 432.885 68.4091C433.207 68.4545 433.519 68.5682 433.822 68.75C434.129 68.9318 434.383 69.1818 434.584 69.5C434.785 69.8144 434.885 70.2008 434.885 70.6591C434.885 71.1061 434.771 71.5057 434.544 71.858C434.317 72.2102 433.991 72.4886 433.567 72.6932C433.143 72.8977 432.635 73 432.044 73H427.93ZM429.203 71.7727H432.044C432.506 71.7727 432.868 71.6629 433.129 71.4432C433.391 71.2235 433.521 70.9242 433.521 70.5455C433.521 70.0947 433.391 69.7405 433.129 69.483C432.868 69.2216 432.506 69.0909 432.044 69.0909H429.203V71.7727ZM429.203 67.9318H431.499C431.858 67.9318 432.167 67.8826 432.425 67.7841C432.682 67.6818 432.879 67.5379 433.016 67.3523C433.156 67.1629 433.226 66.9394 433.226 66.6818C433.226 66.3144 433.072 66.0265 432.766 65.8182C432.459 65.6061 432.036 65.5 431.499 65.5H429.203V67.9318ZM440.254 73.1818C439.413 73.1818 438.688 72.9962 438.078 72.625C437.472 72.25 437.004 71.7273 436.674 71.0568C436.349 70.3826 436.186 69.5985 436.186 68.7045C436.186 67.8106 436.349 67.0227 436.674 66.3409C437.004 65.6553 437.462 65.1212 438.049 64.7386C438.64 64.3523 439.33 64.1591 440.117 64.1591C440.572 64.1591 441.021 64.2348 441.464 64.3864C441.907 64.5379 442.311 64.7841 442.674 65.125C443.038 65.4621 443.328 65.9091 443.544 66.4659C443.76 67.0227 443.867 67.7083 443.867 68.5227V69.0909H437.14V67.9318H442.504C442.504 67.4394 442.405 67 442.208 66.6136C442.015 66.2273 441.739 65.9223 441.379 65.6989C441.023 65.4754 440.602 65.3636 440.117 65.3636C439.583 65.3636 439.121 65.4962 438.731 65.7614C438.345 66.0227 438.047 66.3636 437.839 66.7841C437.631 67.2045 437.527 67.6553 437.527 68.1364V68.9091C437.527 69.5682 437.64 70.1269 437.867 70.5852C438.099 71.0398 438.419 71.3864 438.828 71.625C439.237 71.8598 439.712 71.9773 440.254 71.9773C440.606 71.9773 440.924 71.928 441.208 71.8295C441.496 71.7273 441.744 71.5758 441.953 71.375C442.161 71.1705 442.322 70.9167 442.436 70.6136L443.731 70.9773C443.595 71.4167 443.366 71.803 443.044 72.1364C442.722 72.4659 442.324 72.7235 441.85 72.9091C441.377 73.0909 440.845 73.1818 440.254 73.1818ZM444.775 65.5227V64.2727H451.866V65.5227H449.002V73H447.661V65.5227H444.775ZM457.682 73V64.2727H461.25C462.189 64.2727 462.935 64.4848 463.488 64.9091C464.041 65.3333 464.318 65.8939 464.318 66.5909C464.318 67.1212 464.161 67.5322 463.846 67.8239C463.532 68.1117 463.129 68.3068 462.636 68.4091C462.958 68.4545 463.271 68.5682 463.574 68.75C463.881 68.9318 464.134 69.1818 464.335 69.5C464.536 69.8144 464.636 70.2008 464.636 70.6591C464.636 71.1061 464.523 71.5057 464.295 71.858C464.068 72.2102 463.742 72.4886 463.318 72.6932C462.894 72.8977 462.386 73 461.795 73H457.682ZM458.954 71.7727H461.795C462.257 71.7727 462.619 71.6629 462.881 71.4432C463.142 71.2235 463.273 70.9242 463.273 70.5455C463.273 70.0947 463.142 69.7405 462.881 69.483C462.619 69.2216 462.257 69.0909 461.795 69.0909H458.954V71.7727ZM458.954 67.9318H461.25C461.61 67.9318 461.918 67.8826 462.176 67.7841C462.434 67.6818 462.631 67.5379 462.767 67.3523C462.907 67.1629 462.977 66.9394 462.977 66.6818C462.977 66.3144 462.824 66.0265 462.517 65.8182C462.21 65.6061 461.788 65.5 461.25 65.5H458.954V67.9318ZM477.003 61L477.685 61.8182C477.42 62.0758 477.113 62.2557 476.765 62.358C476.416 62.4602 476.022 62.5227 475.583 62.5455C475.143 62.5682 474.655 62.5909 474.117 62.6136C473.511 62.6364 473.009 62.7841 472.611 63.0568C472.214 63.3295 471.907 63.7235 471.691 64.2386C471.475 64.7538 471.337 65.3864 471.276 66.1364H471.39C471.685 65.5909 472.094 65.1894 472.617 64.9318C473.14 64.6742 473.7 64.5455 474.299 64.5455C474.981 64.5455 475.594 64.7045 476.14 65.0227C476.685 65.3409 477.117 65.8125 477.435 66.4375C477.753 67.0625 477.912 67.8333 477.912 68.75C477.912 69.6629 477.749 70.4508 477.424 71.1136C477.102 71.7765 476.649 72.2879 476.066 72.6477C475.486 73.0038 474.806 73.1818 474.026 73.1818C473.246 73.1818 472.562 72.9981 471.975 72.6307C471.388 72.2595 470.931 71.7102 470.606 70.983C470.28 70.2519 470.117 69.3485 470.117 68.2727V67.3409C470.117 65.3977 470.446 63.9242 471.106 62.9205C471.768 61.9167 472.765 61.3977 474.094 61.3636C474.564 61.3485 474.982 61.3447 475.35 61.3523C475.717 61.3598 476.037 61.3428 476.31 61.3011C476.583 61.2595 476.814 61.1591 477.003 61ZM474.026 71.9773C474.553 71.9773 475.005 71.8447 475.384 71.5795C475.767 71.3144 476.06 70.9413 476.265 70.4602C476.469 69.9754 476.571 69.4053 476.571 68.75C476.571 68.1136 476.467 67.572 476.259 67.125C476.054 66.678 475.761 66.3371 475.378 66.1023C474.996 65.8674 474.537 65.75 474.003 65.75C473.613 65.75 473.263 65.8163 472.952 65.9489C472.642 66.0814 472.376 66.2765 472.157 66.5341C471.937 66.7917 471.767 67.1061 471.645 67.4773C471.528 67.8485 471.465 68.2727 471.458 68.75C471.458 69.7273 471.687 70.5095 472.145 71.0966C472.604 71.6837 473.231 71.9773 474.026 71.9773ZM478.871 73V71.75H479.189C479.45 71.75 479.668 71.6989 479.842 71.5966C480.017 71.4905 480.157 71.3068 480.263 71.0455C480.373 70.7803 480.456 70.4129 480.513 69.9432C480.573 69.4697 480.617 68.8674 480.644 68.1364L480.803 64.2727H486.621V73H485.28V65.5227H482.075L481.939 68.6364C481.909 69.3523 481.844 69.983 481.746 70.5284C481.651 71.0701 481.505 71.5246 481.308 71.892C481.115 72.2595 480.858 72.536 480.536 72.7216C480.214 72.9072 479.81 73 479.325 73H478.871ZM490.102 71.0227L494.306 64.2727H495.852V73H494.511V66.25L490.329 73H488.761V64.2727H490.102V71.0227ZM497.442 73L500.988 68.5682L497.488 64.2727H499.079L501.988 68H502.715V64.2727H504.056V68H504.761L507.67 64.2727H509.261L505.783 68.5682L509.306 73H507.692L504.738 69.25H504.056V73H502.715V69.25H502.033L499.056 73H497.442ZM513.47 73.2045C512.917 73.2045 512.416 73.1004 511.965 72.892C511.514 72.6799 511.156 72.375 510.891 71.9773C510.626 71.5758 510.493 71.0909 510.493 70.5227C510.493 70.0227 510.592 69.6174 510.789 69.3068C510.986 68.9924 511.249 68.7462 511.578 68.5682C511.908 68.3902 512.272 68.2576 512.669 68.1705C513.071 68.0795 513.474 68.0076 513.88 67.9545C514.41 67.8864 514.84 67.8352 515.169 67.8011C515.503 67.7633 515.745 67.7008 515.897 67.6136C516.052 67.5265 516.13 67.375 516.13 67.1591V67.1136C516.13 66.553 515.976 66.1174 515.669 65.8068C515.366 65.4962 514.906 65.3409 514.289 65.3409C513.648 65.3409 513.147 65.4811 512.783 65.7614C512.419 66.0417 512.164 66.3409 512.016 66.6591L510.743 66.2045C510.97 65.6742 511.273 65.2614 511.652 64.9659C512.035 64.6667 512.452 64.4583 512.902 64.3409C513.357 64.2197 513.804 64.1591 514.243 64.1591C514.523 64.1591 514.845 64.1932 515.209 64.2614C515.577 64.3258 515.931 64.4602 516.272 64.6648C516.616 64.8693 516.902 65.178 517.13 65.5909C517.357 66.0038 517.47 66.5568 517.47 67.25V73H516.13V71.8182H516.061C515.97 72.0076 515.819 72.2102 515.607 72.4261C515.395 72.642 515.112 72.8258 514.76 72.9773C514.408 73.1288 513.978 73.2045 513.47 73.2045ZM513.675 72C514.205 72 514.652 71.8958 515.016 71.6875C515.383 71.4792 515.66 71.2102 515.845 70.8807C516.035 70.5511 516.13 70.2045 516.13 69.8409V68.6136C516.073 68.6818 515.948 68.7443 515.755 68.8011C515.565 68.8542 515.345 68.9015 515.095 68.9432C514.849 68.9811 514.609 69.0152 514.374 69.0455C514.143 69.072 513.955 69.0947 513.811 69.1136C513.463 69.1591 513.137 69.233 512.834 69.3352C512.535 69.4337 512.292 69.5833 512.107 69.7841C511.925 69.9811 511.834 70.25 511.834 70.5909C511.834 71.0568 512.006 71.4091 512.351 71.6477C512.7 71.8826 513.141 72 513.675 72ZM520.939 71.0227L525.143 64.2727H526.689V73H525.348V66.25L521.166 73H519.598V64.2727H520.939V71.0227ZM524.257 61.3636H525.507C525.507 61.9773 525.295 62.4792 524.871 62.8693C524.446 63.2595 523.871 63.4545 523.143 63.4545C522.427 63.4545 521.857 63.2595 521.433 62.8693C521.013 62.4792 520.802 61.9773 520.802 61.3636H522.052C522.052 61.6591 522.134 61.9186 522.297 62.142C522.463 62.3655 522.746 62.4773 523.143 62.4773C523.541 62.4773 523.825 62.3655 523.996 62.142C524.17 61.9186 524.257 61.6591 524.257 61.3636ZM528.825 64.2727H530.166V71.75H533.461V64.2727H534.802V71.75H538.098V64.2727H539.438V73H528.825V64.2727ZM545.226 73.1818C544.385 73.1818 543.66 72.9962 543.05 72.625C542.444 72.25 541.976 71.7273 541.647 71.0568C541.321 70.3826 541.158 69.5985 541.158 68.7045C541.158 67.8106 541.321 67.0227 541.647 66.3409C541.976 65.6553 542.435 65.1212 543.022 64.7386C543.613 64.3523 544.302 64.1591 545.09 64.1591C545.545 64.1591 545.993 64.2348 546.437 64.3864C546.88 64.5379 547.283 64.7841 547.647 65.125C548.01 65.4621 548.3 65.9091 548.516 66.4659C548.732 67.0227 548.84 67.7083 548.84 68.5227V69.0909H542.113V67.9318H547.476C547.476 67.4394 547.378 67 547.181 66.6136C546.988 66.2273 546.711 65.9223 546.351 65.6989C545.995 65.4754 545.575 65.3636 545.09 65.3636C544.556 65.3636 544.094 65.4962 543.704 65.7614C543.317 66.0227 543.02 66.3636 542.812 66.7841C542.603 67.2045 542.499 67.6553 542.499 68.1364V68.9091C542.499 69.5682 542.613 70.1269 542.84 70.5852C543.071 71.0398 543.391 71.3864 543.8 71.625C544.209 71.8598 544.685 71.9773 545.226 71.9773C545.579 71.9773 545.897 71.928 546.181 71.8295C546.469 71.7273 546.717 71.5758 546.925 71.375C547.134 71.1705 547.295 70.9167 547.408 70.6136L548.704 70.9773C548.567 71.4167 548.338 71.803 548.016 72.1364C547.694 72.4659 547.296 72.7235 546.823 72.9091C546.349 73.0909 545.817 73.1818 545.226 73.1818ZM554.219 73.1818C553.378 73.1818 552.653 72.9962 552.043 72.625C551.437 72.25 550.969 71.7273 550.639 71.0568C550.314 70.3826 550.151 69.5985 550.151 68.7045C550.151 67.8106 550.314 67.0227 550.639 66.3409C550.969 65.6553 551.427 65.1212 552.014 64.7386C552.605 64.3523 553.295 64.1591 554.083 64.1591C554.537 64.1591 554.986 64.2348 555.429 64.3864C555.872 64.5379 556.276 64.7841 556.639 65.125C557.003 65.4621 557.293 65.9091 557.509 66.4659C557.725 67.0227 557.833 67.7083 557.833 68.5227V69.0909H551.105V67.9318H556.469C556.469 67.4394 556.37 67 556.173 66.6136C555.98 66.2273 555.704 65.9223 555.344 65.6989C554.988 65.4754 554.567 65.3636 554.083 65.3636C553.548 65.3636 553.086 65.4962 552.696 65.7614C552.31 66.0227 552.012 66.3636 551.804 66.7841C551.596 67.2045 551.492 67.6553 551.492 68.1364V68.9091C551.492 69.5682 551.605 70.1269 551.833 70.5852C552.064 71.0398 552.384 71.3864 552.793 71.625C553.202 71.8598 553.677 71.9773 554.219 71.9773C554.571 71.9773 554.889 71.928 555.173 71.8295C555.461 71.7273 555.709 71.5758 555.918 71.375C556.126 71.1705 556.287 70.9167 556.401 70.6136L557.696 70.9773C557.56 71.4167 557.331 71.803 557.009 72.1364C556.687 72.4659 556.289 72.7235 555.815 72.9091C555.342 73.0909 554.81 73.1818 554.219 73.1818ZM563.732 73V64.2727H567.3C568.24 64.2727 568.986 64.4848 569.539 64.9091C570.092 65.3333 570.369 65.8939 570.369 66.5909C570.369 67.1212 570.211 67.5322 569.897 67.8239C569.583 68.1117 569.179 68.3068 568.687 68.4091C569.009 68.4545 569.321 68.5682 569.624 68.75C569.931 68.9318 570.185 69.1818 570.386 69.5C570.586 69.8144 570.687 70.2008 570.687 70.6591C570.687 71.1061 570.573 71.5057 570.346 71.858C570.119 72.2102 569.793 72.4886 569.369 72.6932C568.944 72.8977 568.437 73 567.846 73H563.732ZM565.005 71.7727H567.846C568.308 71.7727 568.67 71.6629 568.931 71.4432C569.193 71.2235 569.323 70.9242 569.323 70.5455C569.323 70.0947 569.193 69.7405 568.931 69.483C568.67 69.2216 568.308 69.0909 567.846 69.0909H565.005V71.7727ZM565.005 67.9318H567.3C567.66 67.9318 567.969 67.8826 568.227 67.7841C568.484 67.6818 568.681 67.5379 568.818 67.3523C568.958 67.1629 569.028 66.9394 569.028 66.6818C569.028 66.3144 568.874 66.0265 568.568 65.8182C568.261 65.6061 567.838 65.5 567.3 65.5H565.005V67.9318ZM572.397 76.2727V64.2727H573.692V65.6591H573.851C573.95 65.5076 574.086 65.3144 574.26 65.0795C574.438 64.8409 574.692 64.6288 575.022 64.4432C575.355 64.2538 575.806 64.1591 576.374 64.1591C577.109 64.1591 577.756 64.3428 578.317 64.7102C578.878 65.0777 579.315 65.5985 579.63 66.2727C579.944 66.947 580.101 67.7424 580.101 68.6591C580.101 69.5833 579.944 70.3845 579.63 71.0625C579.315 71.7367 578.88 72.2595 578.323 72.6307C577.766 72.9981 577.124 73.1818 576.397 73.1818C575.836 73.1818 575.387 73.089 575.05 72.9034C574.713 72.714 574.453 72.5 574.272 72.2614C574.09 72.0189 573.95 71.8182 573.851 71.6591H573.738V76.2727H572.397ZM573.715 68.6364C573.715 69.2955 573.811 69.8769 574.005 70.3807C574.198 70.8807 574.48 71.2727 574.851 71.5568C575.222 71.8371 575.677 71.9773 576.215 71.9773C576.775 71.9773 577.243 71.8295 577.618 71.5341C577.997 71.2348 578.281 70.8333 578.471 70.3295C578.664 69.822 578.76 69.2576 578.76 68.6364C578.76 68.0227 578.666 67.4697 578.476 66.9773C578.291 66.4811 578.008 66.089 577.63 65.8011C577.255 65.5095 576.783 65.3636 576.215 65.3636C575.669 65.3636 575.211 65.5019 574.84 65.7784C574.469 66.0511 574.188 66.4337 573.999 66.9261C573.81 67.4148 573.715 67.9848 573.715 68.6364ZM585.486 73.1818C584.645 73.1818 583.919 72.9962 583.31 72.625C582.704 72.25 582.236 71.7273 581.906 71.0568C581.58 70.3826 581.418 69.5985 581.418 68.7045C581.418 67.8106 581.58 67.0227 581.906 66.3409C582.236 65.6553 582.694 65.1212 583.281 64.7386C583.872 64.3523 584.561 64.1591 585.349 64.1591C585.804 64.1591 586.253 64.2348 586.696 64.3864C587.139 64.5379 587.543 64.7841 587.906 65.125C588.27 65.4621 588.56 65.9091 588.776 66.4659C588.991 67.0227 589.099 67.7083 589.099 68.5227V69.0909H582.372V67.9318H587.736C587.736 67.4394 587.637 67 587.44 66.6136C587.247 66.2273 586.971 65.9223 586.611 65.6989C586.255 65.4754 585.834 65.3636 585.349 65.3636C584.815 65.3636 584.353 65.4962 583.963 65.7614C583.577 66.0227 583.279 66.3636 583.071 66.7841C582.863 67.2045 582.758 67.6553 582.758 68.1364V68.9091C582.758 69.5682 582.872 70.1269 583.099 70.5852C583.33 71.0398 583.651 71.3864 584.06 71.625C584.469 71.8598 584.944 71.9773 585.486 71.9773C585.838 71.9773 586.156 71.928 586.44 71.8295C586.728 71.7273 586.976 71.5758 587.185 71.375C587.393 71.1705 587.554 70.9167 587.668 70.6136L588.963 70.9773C588.827 71.4167 588.597 71.803 588.276 72.1364C587.954 72.4659 587.556 72.7235 587.082 72.9091C586.609 73.0909 586.077 73.1818 585.486 73.1818ZM595.592 71.1818L598.637 64.2727H599.91L596.137 73H595.046L591.342 64.2727H592.592L595.592 71.1818ZM592.16 64.2727V73H590.819V64.2727H592.16ZM599.024 73V64.2727H600.365V73H599.024ZM607.749 73V65.5H605.431C604.908 65.5 604.497 65.6212 604.198 65.8636C603.899 66.1061 603.749 66.4394 603.749 66.8636C603.749 67.2803 603.884 67.608 604.153 67.8466C604.425 68.0852 604.798 68.2045 605.272 68.2045H608.09V69.4545H605.272C604.681 69.4545 604.171 69.3504 603.743 69.142C603.315 68.9337 602.986 68.6364 602.755 68.25C602.524 67.8598 602.408 67.3977 602.408 66.8636C602.408 66.3258 602.529 65.8636 602.772 65.4773C603.014 65.0909 603.361 64.7936 603.812 64.5852C604.266 64.3769 604.806 64.2727 605.431 64.2727H609.022V73H607.749ZM601.931 73L604.408 68.6591H605.863L603.385 73H601.931Z" fill="#F1F1F3"/>
    <rect x="731" y="28" width="153" height="38" rx="19" fill="#313135"/>
    <path d="M756.17 53.1591C755.39 53.1591 754.693 53.0246 754.08 52.7557C753.47 52.4867 752.987 52.1136 752.631 51.6364C752.278 51.1553 752.089 50.5985 752.062 49.9659H753.847C753.869 50.3106 753.985 50.6098 754.193 50.8636C754.405 51.1136 754.682 51.3068 755.023 51.4432C755.364 51.5795 755.742 51.6477 756.159 51.6477C756.617 51.6477 757.023 51.5682 757.375 51.4091C757.731 51.25 758.009 51.0284 758.21 50.7443C758.411 50.4564 758.511 50.125 758.511 49.75C758.511 49.3598 758.411 49.017 758.21 48.7216C758.013 48.4223 757.723 48.1875 757.341 48.017C756.962 47.8466 756.504 47.7614 755.966 47.7614H754.983V46.3295H755.966C756.398 46.3295 756.777 46.2519 757.102 46.0966C757.432 45.9413 757.689 45.7254 757.875 45.4489C758.061 45.1686 758.153 44.8409 758.153 44.4659C758.153 44.1061 758.072 43.7936 757.909 43.5284C757.75 43.2595 757.523 43.0492 757.227 42.8977C756.936 42.7462 756.591 42.6705 756.193 42.6705C755.814 42.6705 755.46 42.7405 755.131 42.8807C754.805 43.017 754.54 43.214 754.335 43.4716C754.131 43.7254 754.021 44.0303 754.006 44.3864H752.307C752.326 43.7576 752.511 43.2045 752.864 42.7273C753.22 42.25 753.689 41.8769 754.273 41.608C754.856 41.339 755.504 41.2045 756.216 41.2045C756.962 41.2045 757.606 41.3504 758.148 41.642C758.693 41.9299 759.114 42.3144 759.409 42.7955C759.708 43.2765 759.856 43.803 759.852 44.375C759.856 45.0265 759.674 45.5795 759.307 46.0341C758.943 46.4886 758.458 46.7936 757.852 46.9489V47.0398C758.625 47.1572 759.223 47.464 759.648 47.9602C760.076 48.4564 760.288 49.072 760.284 49.8068C760.288 50.447 760.11 51.0208 759.75 51.5284C759.394 52.036 758.907 52.4356 758.29 52.7273C757.672 53.0152 756.966 53.1591 756.17 53.1591ZM764.674 53.1932C764.121 53.1932 763.621 53.0909 763.174 52.8864C762.727 52.678 762.373 52.3769 762.112 51.983C761.854 51.589 761.725 51.1061 761.725 50.5341C761.725 50.0417 761.82 49.6364 762.01 49.3182C762.199 49 762.455 48.7481 762.777 48.5625C763.099 48.3769 763.458 48.2367 763.856 48.142C764.254 48.0473 764.659 47.9754 765.072 47.9261C765.595 47.8655 766.019 47.8163 766.345 47.7784C766.671 47.7367 766.907 47.6705 767.055 47.5795C767.203 47.4886 767.277 47.3409 767.277 47.1364V47.0966C767.277 46.6004 767.136 46.2159 766.856 45.9432C766.58 45.6705 766.167 45.5341 765.618 45.5341C765.046 45.5341 764.595 45.661 764.265 45.9148C763.939 46.1648 763.714 46.4432 763.589 46.75L761.993 46.3864C762.182 45.8561 762.458 45.428 762.822 45.1023C763.189 44.7727 763.612 44.5341 764.089 44.3864C764.566 44.2348 765.068 44.1591 765.595 44.1591C765.943 44.1591 766.313 44.2008 766.703 44.2841C767.097 44.3636 767.464 44.5114 767.805 44.7273C768.15 44.9432 768.432 45.2519 768.652 45.6534C768.871 46.0511 768.981 46.5682 768.981 47.2045V53H767.322V51.8068H767.254C767.144 52.0265 766.979 52.2424 766.76 52.4545C766.54 52.6667 766.258 52.8428 765.913 52.983C765.568 53.1231 765.155 53.1932 764.674 53.1932ZM765.044 51.8295C765.513 51.8295 765.915 51.7367 766.248 51.5511C766.585 51.3655 766.841 51.1231 767.015 50.8239C767.193 50.5208 767.282 50.197 767.282 49.8523V48.7273C767.222 48.7879 767.104 48.8447 766.93 48.8977C766.76 48.947 766.564 48.9905 766.345 49.0284C766.125 49.0625 765.911 49.0947 765.703 49.125C765.494 49.1515 765.32 49.1742 765.18 49.1932C764.85 49.2348 764.549 49.3049 764.277 49.4034C764.008 49.5019 763.792 49.6439 763.629 49.8295C763.47 50.0114 763.39 50.2538 763.39 50.5568C763.39 50.9773 763.546 51.2955 763.856 51.5114C764.167 51.7235 764.563 51.8295 765.044 51.8295ZM770.072 55.517V51.5284H770.782C770.964 51.3617 771.117 51.1629 771.242 50.9318C771.371 50.7008 771.479 50.4261 771.566 50.108C771.657 49.7898 771.733 49.4186 771.793 48.9943C771.854 48.5663 771.907 48.0777 771.952 47.5284L772.225 44.2727H778.157V51.5284H779.498V55.517H777.839V53H771.753V55.517H770.072ZM772.6 51.5284H776.498V45.7273H773.748L773.566 47.5284C773.479 48.4451 773.369 49.2405 773.236 49.9148C773.104 50.5852 772.892 51.1231 772.6 51.5284ZM783.378 53.1932C782.825 53.1932 782.325 53.0909 781.878 52.8864C781.431 52.678 781.077 52.3769 780.816 51.983C780.558 51.589 780.429 51.1061 780.429 50.5341C780.429 50.0417 780.524 49.6364 780.713 49.3182C780.903 49 781.158 48.7481 781.48 48.5625C781.802 48.3769 782.162 48.2367 782.56 48.142C782.958 48.0473 783.363 47.9754 783.776 47.9261C784.299 47.8655 784.723 47.8163 785.049 47.7784C785.374 47.7367 785.611 47.6705 785.759 47.5795C785.906 47.4886 785.98 47.3409 785.98 47.1364V47.0966C785.98 46.6004 785.84 46.2159 785.56 45.9432C785.283 45.6705 784.87 45.5341 784.321 45.5341C783.749 45.5341 783.299 45.661 782.969 45.9148C782.643 46.1648 782.418 46.4432 782.293 46.75L780.696 46.3864C780.886 45.8561 781.162 45.428 781.526 45.1023C781.893 44.7727 782.316 44.5341 782.793 44.3864C783.27 44.2348 783.772 44.1591 784.299 44.1591C784.647 44.1591 785.016 44.2008 785.406 44.2841C785.8 44.3636 786.168 44.5114 786.509 44.7273C786.853 44.9432 787.136 45.2519 787.355 45.6534C787.575 46.0511 787.685 46.5682 787.685 47.2045V53H786.026V51.8068H785.958C785.848 52.0265 785.683 52.2424 785.463 52.4545C785.244 52.6667 784.961 52.8428 784.617 52.983C784.272 53.1231 783.859 53.1932 783.378 53.1932ZM783.747 51.8295C784.217 51.8295 784.619 51.7367 784.952 51.5511C785.289 51.3655 785.545 51.1231 785.719 50.8239C785.897 50.5208 785.986 50.197 785.986 49.8523V48.7273C785.925 48.7879 785.808 48.8447 785.634 48.8977C785.463 48.947 785.268 48.9905 785.049 49.0284C784.829 49.0625 784.615 49.0947 784.406 49.125C784.198 49.1515 784.024 49.1742 783.884 49.1932C783.554 49.2348 783.253 49.3049 782.98 49.4034C782.711 49.5019 782.495 49.6439 782.333 49.8295C782.174 50.0114 782.094 50.2538 782.094 50.5568C782.094 50.9773 782.249 51.2955 782.56 51.5114C782.87 51.7235 783.266 51.8295 783.747 51.8295ZM788.545 45.7386V44.2727H795.909V45.7386H793.062V53H791.403V45.7386H788.545ZM798.664 47.2727H801.198C802.266 47.2727 803.088 47.5379 803.664 48.0682C804.24 48.5985 804.528 49.2822 804.528 50.1193C804.528 50.6648 804.399 51.1553 804.141 51.5909C803.884 52.0265 803.507 52.3712 803.011 52.625C802.515 52.875 801.91 53 801.198 53H797.386V44.2727H799.051V51.5341H801.198C801.687 51.5341 802.088 51.4072 802.403 51.1534C802.717 50.8958 802.874 50.5682 802.874 50.1705C802.874 49.75 802.717 49.4072 802.403 49.142C802.088 48.8731 801.687 48.7386 801.198 48.7386H798.664V47.2727ZM810.027 53V44.2727H813.646C814.631 44.2727 815.412 44.483 815.987 44.9034C816.563 45.3201 816.851 45.8864 816.851 46.6023C816.851 47.1136 816.688 47.5189 816.362 47.8182C816.037 48.1174 815.605 48.3182 815.067 48.4205C815.457 48.4659 815.815 48.5833 816.141 48.7727C816.466 48.9583 816.728 49.2083 816.925 49.5227C817.126 49.8371 817.226 50.2121 817.226 50.6477C817.226 51.1098 817.107 51.5189 816.868 51.875C816.629 52.2273 816.283 52.5038 815.828 52.7045C815.377 52.9015 814.834 53 814.197 53H810.027ZM811.624 51.5795H814.197C814.618 51.5795 814.947 51.4792 815.186 51.2784C815.425 51.0777 815.544 50.8049 815.544 50.4602C815.544 50.0549 815.425 49.7367 815.186 49.5057C814.947 49.2708 814.618 49.1534 814.197 49.1534H811.624V51.5795ZM811.624 47.9091H813.663C813.982 47.9091 814.254 47.8636 814.482 47.7727C814.713 47.6818 814.889 47.553 815.01 47.3864C815.135 47.2159 815.197 47.0152 815.197 46.7841C815.197 46.447 815.059 46.1837 814.783 45.9943C814.506 45.8049 814.127 45.7102 813.646 45.7102H811.624V47.9091ZM822.446 53.1761C821.628 53.1761 820.913 52.9886 820.304 52.6136C819.694 52.2386 819.22 51.714 818.883 51.0398C818.546 50.3655 818.378 49.5777 818.378 48.6761C818.378 47.7708 818.546 46.9792 818.883 46.3011C819.22 45.6231 819.694 45.0966 820.304 44.7216C820.913 44.3466 821.628 44.1591 822.446 44.1591C823.264 44.1591 823.978 44.3466 824.588 44.7216C825.198 45.0966 825.671 45.6231 826.008 46.3011C826.345 46.9792 826.514 47.7708 826.514 48.6761C826.514 49.5777 826.345 50.3655 826.008 51.0398C825.671 51.714 825.198 52.2386 824.588 52.6136C823.978 52.9886 823.264 53.1761 822.446 53.1761ZM822.451 51.75C822.982 51.75 823.421 51.6098 823.77 51.3295C824.118 51.0492 824.376 50.6761 824.542 50.2102C824.713 49.7443 824.798 49.2311 824.798 48.6705C824.798 48.1136 824.713 47.6023 824.542 47.1364C824.376 46.6667 824.118 46.2898 823.77 46.0057C823.421 45.7216 822.982 45.5795 822.451 45.5795C821.917 45.5795 821.474 45.7216 821.122 46.0057C820.773 46.2898 820.514 46.6667 820.343 47.1364C820.177 47.6023 820.093 48.1136 820.093 48.6705C820.093 49.2311 820.177 49.7443 820.343 50.2102C820.514 50.6761 820.773 51.0492 821.122 51.3295C821.474 51.6098 821.917 51.75 822.451 51.75ZM828.09 53V44.2727H835.209V53H833.545V45.7386H829.744V53H828.09ZM837.161 56.2727V44.2727H838.82V45.6875H838.962C839.06 45.5057 839.202 45.2955 839.388 45.0568C839.574 44.8182 839.831 44.6098 840.161 44.4318C840.49 44.25 840.926 44.1591 841.468 44.1591C842.172 44.1591 842.801 44.3371 843.354 44.6932C843.907 45.0492 844.341 45.5625 844.655 46.233C844.973 46.9034 845.132 47.7102 845.132 48.6534C845.132 49.5966 844.975 50.4053 844.661 51.0795C844.346 51.75 843.915 52.267 843.365 52.6307C842.816 52.9905 842.189 53.1705 841.485 53.1705C840.954 53.1705 840.521 53.0814 840.184 52.9034C839.85 52.7254 839.589 52.517 839.399 52.2784C839.21 52.0398 839.064 51.8277 838.962 51.642H838.86V56.2727H837.161ZM838.826 48.6364C838.826 49.25 838.915 49.7879 839.093 50.25C839.271 50.7121 839.528 51.0739 839.865 51.3352C840.202 51.5928 840.615 51.7216 841.104 51.7216C841.612 51.7216 842.036 51.5871 842.377 51.3182C842.718 51.0455 842.975 50.6761 843.149 50.2102C843.327 49.7443 843.416 49.2197 843.416 48.6364C843.416 48.0606 843.329 47.5436 843.155 47.0852C842.985 46.6269 842.727 46.2652 842.382 46C842.041 45.7348 841.615 45.6023 841.104 45.6023C840.612 45.6023 840.195 45.7292 839.854 45.983C839.517 46.2367 839.261 46.5909 839.087 47.0455C838.913 47.5 838.826 48.0303 838.826 48.6364ZM850.392 53.1761C849.574 53.1761 848.86 52.9886 848.25 52.6136C847.64 52.2386 847.167 51.714 846.829 51.0398C846.492 50.3655 846.324 49.5777 846.324 48.6761C846.324 47.7708 846.492 46.9792 846.829 46.3011C847.167 45.6231 847.64 45.0966 848.25 44.7216C848.86 44.3466 849.574 44.1591 850.392 44.1591C851.21 44.1591 851.924 44.3466 852.534 44.7216C853.144 45.0966 853.617 45.6231 853.954 46.3011C854.292 46.9792 854.46 47.7708 854.46 48.6761C854.46 49.5777 854.292 50.3655 853.954 51.0398C853.617 51.714 853.144 52.2386 852.534 52.6136C851.924 52.9886 851.21 53.1761 850.392 53.1761ZM850.398 51.75C850.928 51.75 851.367 51.6098 851.716 51.3295C852.064 51.0492 852.322 50.6761 852.489 50.2102C852.659 49.7443 852.744 49.2311 852.744 48.6705C852.744 48.1136 852.659 47.6023 852.489 47.1364C852.322 46.6667 852.064 46.2898 851.716 46.0057C851.367 45.7216 850.928 45.5795 850.398 45.5795C849.864 45.5795 849.42 45.7216 849.068 46.0057C848.72 46.2898 848.46 46.6667 848.29 47.1364C848.123 47.6023 848.04 48.1136 848.04 48.6705C848.04 49.2311 848.123 49.7443 848.29 50.2102C848.46 50.6761 848.72 51.0492 849.068 51.3295C849.42 51.6098 849.864 51.75 850.398 51.75ZM859.713 53.1761C858.868 53.1761 858.141 52.9848 857.531 52.6023C856.925 52.2159 856.459 51.6837 856.133 51.0057C855.807 50.3277 855.644 49.5511 855.644 48.6761C855.644 47.7898 855.811 47.0076 856.144 46.3295C856.478 45.6477 856.947 45.1155 857.553 44.733C858.16 44.3504 858.874 44.1591 859.696 44.1591C860.358 44.1591 860.949 44.2822 861.468 44.5284C861.987 44.7708 862.406 45.1117 862.724 45.5511C863.046 45.9905 863.237 46.5038 863.298 47.0909H861.644C861.553 46.6818 861.345 46.3295 861.019 46.0341C860.697 45.7386 860.266 45.5909 859.724 45.5909C859.25 45.5909 858.836 45.7159 858.48 45.9659C858.127 46.2121 857.853 46.5644 857.656 47.0227C857.459 47.4773 857.36 48.0152 857.36 48.6364C857.36 49.2727 857.457 49.822 857.65 50.2841C857.843 50.7462 858.116 51.1042 858.468 51.358C858.824 51.6117 859.243 51.7386 859.724 51.7386C860.046 51.7386 860.338 51.6799 860.599 51.5625C860.864 51.4413 861.086 51.2689 861.264 51.0455C861.446 50.822 861.572 50.553 861.644 50.2386H863.298C863.237 50.803 863.053 51.3068 862.747 51.75C862.44 52.1932 862.029 52.5417 861.514 52.7955C861.002 53.0492 860.402 53.1761 859.713 53.1761Z" fill="#F1F1F3"/>
</svg>
